<svg width="20" height="20" viewBox="0 0 20 20" fill="none" xmlns="http://www.w3.org/2000/svg">
<path d="M6 1.3335C4.38736 1.3335 3.04219 2.47867 2.73335 4.00016L4.66255e-07 4.00016L4.07974e-07 5.3335L2.73335 5.3335C3.04219 6.85499 4.38736 8.00016 6 8.00016C7.61264 8.00016 8.95781 6.85499 9.26665 5.3335L20 5.3335V4.00016L9.26665 4.00016C8.95781 2.47867 7.61264 1.3335 6 1.3335Z" fill="white"/>
<path d="M14 12.0002C12.3874 12.0002 11.0422 13.1453 10.7333 14.6668L0 14.6668L1.21328e-06 16.0002L10.7333 16.0002C11.0422 17.5217 12.3874 18.6668 14 18.6668C15.6126 18.6668 16.9578 17.5217 17.2667 16.0002L20 16.0002V14.6668L17.2667 14.6668C16.9578 13.1453 15.6126 12.0002 14 12.0002Z" fill="white"/>
</svg>
