<svg width="18" height="18" viewBox="0 0 18 18" fill="none" xmlns="http://www.w3.org/2000/svg">
<path fill-rule="evenodd" clip-rule="evenodd" d="M9.34874 0.11176C9.14012 -0.0372533 8.85988 -0.0372533 8.65126 0.11176L0.251257 6.11176C0.0935794 6.22439 0 6.40623 0 6.6V17.4C0 17.7314 0.268629 18 0.6 18H2.4V9.6H8.4V18H17.4C17.7314 18 18 17.7314 18 17.4V6.6C18 6.40623 17.9064 6.22439 17.7487 6.11176L16.8 5.43409V2.4H15.6V4.57694L9.34874 0.11176ZM13.2 14.4V9.6H14.4V14.4H13.2Z" fill="#FCAE4F"/>
<path d="M7.2 18V14.4H6V13.2H7.2V10.8H3.6V18H7.2Z" fill="#FCAE4F"/>
</svg>
