<svg width="305" height="305" viewBox="0 0 305 305" fill="none" xmlns="http://www.w3.org/2000/svg">
<path d="M152.5 260.812C217.82 260.812 270.773 257.72 270.773 253.906C270.773 250.093 217.82 247.001 152.5 247.001C87.1797 247.001 34.2271 250.093 34.2271 253.906C34.2271 257.72 87.1797 260.812 152.5 260.812Z" fill="#F5F5F5"/>
<path d="M305 233.264H0V233.417H305V233.264Z" fill="#EBEBEB"/>
<path d="M44.9387 239.071H32.0006V239.224H44.9387V239.071Z" fill="#EBEBEB"/>
<path d="M156.227 237.418H104.395V237.571H156.227V237.418Z" fill="#EBEBEB"/>
<path d="M64.5258 244.738H41.2787V244.891H64.5258V244.738Z" fill="#EBEBEB"/>
<path d="M274.439 243.713H248.093V243.866H274.439V243.713Z" fill="#EBEBEB"/>
<path d="M246.098 243.713H238.797V243.866H246.098V243.713Z" fill="#EBEBEB"/>
<path d="M226.243 241.139H212.213V241.292H226.243V241.139Z" fill="#EBEBEB"/>
<path d="M205.161 241.139H175.613V241.292H205.161V241.139Z" fill="#EBEBEB"/>
<path d="M144.57 206.058H26.7851C25.8624 206.056 24.978 205.689 24.3261 205.036C23.6742 204.383 23.3081 203.498 23.3081 202.575V37.0026C23.3161 36.0852 23.6858 35.208 24.3368 34.5616C24.9879 33.9151 25.8676 33.5516 26.7851 33.55H144.57C145.494 33.55 146.38 33.917 147.033 34.5702C147.686 35.2234 148.053 36.1094 148.053 37.0331V202.575C148.053 203.499 147.686 204.385 147.033 205.038C146.38 205.691 145.494 206.058 144.57 206.058ZM26.7851 33.672C25.9028 33.6737 25.0572 34.0253 24.434 34.6497C23.8107 35.2741 23.4606 36.1204 23.4606 37.0026V202.575C23.4606 203.457 23.8107 204.303 24.434 204.928C25.0572 205.552 25.9028 205.904 26.7851 205.906H144.57C145.452 205.902 146.298 205.55 146.922 204.926C147.545 204.303 147.897 203.457 147.901 202.575V37.0026C147.897 36.1203 147.545 35.275 146.922 34.6511C146.298 34.0272 145.452 33.6753 144.57 33.672H26.7851Z" fill="#EBEBEB"/>
<path d="M276.519 206.058H158.728C157.805 206.055 156.921 205.687 156.269 205.034C155.616 204.382 155.248 203.498 155.245 202.575V37.0026C155.255 36.0847 155.626 35.2075 156.278 34.5612C156.93 33.9149 157.81 33.5516 158.728 33.55H276.519C277.435 33.5532 278.314 33.9174 278.963 34.5637C279.613 35.21 279.982 36.0863 279.99 37.0026V202.575C279.991 203.032 279.902 203.484 279.728 203.906C279.554 204.328 279.298 204.712 278.976 205.035C278.654 205.359 278.271 205.616 277.849 205.791C277.428 205.966 276.976 206.057 276.519 206.058ZM158.728 33.672C157.846 33.6753 157 34.0272 156.377 34.6511C155.753 35.275 155.401 36.1203 155.397 37.0026V202.575C155.401 203.457 155.753 204.303 156.377 204.926C157 205.55 157.846 205.902 158.728 205.906H276.519C277.401 205.902 278.247 205.55 278.871 204.926C279.495 204.303 279.846 203.457 279.85 202.575V37.0026C279.846 36.1203 279.495 35.275 278.871 34.6511C278.247 34.0272 277.401 33.6753 276.519 33.672H158.728Z" fill="#EBEBEB"/>
<path d="M192.315 172.063H189.716V233.38H192.315V172.063Z" fill="#F0F0F0"/>
<path d="M163.218 173.813H90.6338V187.057H163.218V173.813Z" fill="#E0E0E0"/>
<path d="M120.902 233.429H89.792C89.6723 233.429 89.5575 233.381 89.4728 233.296C89.3882 233.212 89.3406 233.097 89.3406 232.977C89.3406 232.858 89.3882 232.743 89.4728 232.658C89.5575 232.573 89.6723 232.526 89.792 232.526H120.902C125.398 232.526 126.002 231.214 126.002 226.005V160.314C125.994 160.251 126 160.187 126.019 160.126C126.039 160.065 126.07 160.009 126.113 159.962C126.155 159.914 126.207 159.876 126.265 159.85C126.323 159.824 126.386 159.81 126.45 159.81C126.514 159.81 126.577 159.824 126.635 159.85C126.693 159.876 126.745 159.914 126.787 159.962C126.83 160.009 126.861 160.065 126.88 160.126C126.9 160.187 126.906 160.251 126.898 160.314V226.005C126.88 231.574 126.032 233.429 120.902 233.429Z" fill="#E0E0E0"/>
<path d="M191.607 172.301H93.4276V176.9H191.607V172.301Z" fill="#F0F0F0"/>
<path d="M94.1352 172.063H62.6104V233.38H94.1352V172.063Z" fill="#F5F5F5"/>
<path d="M94.1291 172.063H91.5305V233.38H94.1291V172.063Z" fill="#F0F0F0"/>
<path d="M71.8092 103.224H39.5646V233.386H71.8092V103.224Z" fill="#FAFAFA"/>
<path d="M70.0402 107.025H41.3336V135.731H70.0402V107.025Z" fill="#F5F5F5"/>
<path d="M49.3307 106.64H62.0614C62.0614 107.43 61.7478 108.187 61.1895 108.745C60.6313 109.303 59.8741 109.617 59.0846 109.617H52.3258C51.9349 109.619 51.5473 109.545 51.1852 109.397C50.8232 109.25 50.4936 109.033 50.2155 108.758C49.9374 108.483 49.7161 108.157 49.5643 107.796C49.4125 107.436 49.3331 107.049 49.3307 106.659V106.64Z" fill="#E0E0E0"/>
<path d="M70.0341 138.305H41.3275V167.012H70.0341V138.305Z" fill="#F5F5F5"/>
<path d="M70.0402 169.592H41.3336V198.299H70.0402V169.592Z" fill="#F5F5F5"/>
<path d="M70.0402 200.879H41.3336V229.586H70.0402V200.879Z" fill="#F5F5F5"/>
<path d="M49.3307 137.927H62.0614C62.0598 138.717 61.7458 139.474 61.1881 140.032C60.6304 140.591 59.8742 140.907 59.0846 140.91H52.3258C51.9344 140.912 51.5463 140.838 51.1838 140.69C50.8213 140.542 50.4916 140.324 50.2134 140.049C49.9352 139.774 49.714 139.446 49.5625 139.085C49.4111 138.724 49.3323 138.337 49.3307 137.945V137.927Z" fill="#E0E0E0"/>
<path d="M49.3307 169.208H62.0614C62.0622 169.599 61.9858 169.986 61.8364 170.348C61.6871 170.71 61.4679 171.038 61.1913 171.315C60.9147 171.591 60.5863 171.81 60.2247 171.96C59.8632 172.109 59.4758 172.185 59.0846 172.185H52.3258C51.5374 172.19 50.7792 171.881 50.2177 171.328C49.6561 170.774 49.3372 170.021 49.3307 169.232V169.208Z" fill="#E0E0E0"/>
<path d="M49.3307 200.489H62.0614C62.0622 200.88 61.9858 201.267 61.8364 201.629C61.6871 201.99 61.4679 202.319 61.1913 202.595C60.9147 202.872 60.5863 203.091 60.2247 203.241C59.8632 203.39 59.4758 203.466 59.0846 203.466H52.3258C51.5374 203.47 50.7792 203.162 50.2177 202.609C49.6561 202.055 49.3372 201.302 49.3307 200.513V200.489Z" fill="#E0E0E0"/>
<path d="M39.5646 103.224H23.4606V233.386H39.5646V103.224Z" fill="#F0F0F0"/>
<path d="M122.744 172.063H115.949L117.596 158.826H124.403L122.744 172.063Z" fill="#F0F0F0"/>
<path d="M124.251 172.063H117.449L119.109 158.826H125.904L124.251 172.063Z" fill="#F5F5F5"/>
<path d="M138.842 172.063H133.919L132.98 170.562H137.897L138.842 172.063Z" fill="#F0F0F0"/>
<path d="M165.188 172.063H135.426L134.487 170.562H161.174L165.188 172.063Z" fill="#FAFAFA"/>
<path d="M101.181 168.262H103.334C103.833 168.262 104.327 168.361 104.787 168.552C105.248 168.743 105.667 169.023 106.019 169.376C106.371 169.729 106.651 170.148 106.841 170.609C107.031 171.07 107.129 171.564 107.128 172.063H97.3682C97.3682 171.055 97.7686 170.088 98.4813 169.376C99.194 168.663 100.161 168.262 101.169 168.262H101.181Z" fill="#F0F0F0"/>
<path d="M125.074 165.444H118.279L119.109 158.826H125.904L125.074 165.444Z" fill="#F0F0F0"/>
<path d="M100.077 163.858H148.23C148.318 163.859 148.404 163.842 148.485 163.809C148.566 163.776 148.64 163.727 148.702 163.665C148.764 163.603 148.813 163.53 148.846 163.449C148.879 163.368 148.896 163.281 148.895 163.193C148.898 163.165 148.898 163.136 148.895 163.108L145.18 133.45C145.168 133.284 145.093 133.128 144.971 133.015C144.848 132.902 144.688 132.839 144.521 132.84H96.38C96.2037 132.84 96.0345 132.91 95.9098 133.034C95.7851 133.159 95.7151 133.328 95.7151 133.505C95.7121 133.533 95.7121 133.562 95.7151 133.59L99.43 163.279C99.4516 163.436 99.5285 163.581 99.6469 163.687C99.7654 163.793 99.9176 163.854 100.077 163.858Z" fill="#F0F0F0"/>
<path d="M100.803 163.858H148.913C149.001 163.859 149.088 163.842 149.169 163.809C149.25 163.776 149.323 163.727 149.385 163.665C149.447 163.603 149.496 163.53 149.529 163.449C149.562 163.368 149.579 163.281 149.578 163.193C149.581 163.165 149.581 163.136 149.578 163.108L145.875 133.45C145.858 133.285 145.78 133.132 145.658 133.019C145.536 132.907 145.377 132.843 145.211 132.84H97.0937C96.9174 132.84 96.7482 132.91 96.6235 133.034C96.4988 133.159 96.4288 133.328 96.4288 133.505C96.4258 133.533 96.4258 133.562 96.4288 133.59L100.138 163.254C100.151 163.42 100.228 163.575 100.351 163.687C100.475 163.799 100.636 163.86 100.803 163.858Z" fill="#F5F5F5"/>
<path d="M148.023 162.217L144.57 134.456C144.564 134.411 144.541 134.37 144.506 134.34C144.471 134.311 144.427 134.296 144.381 134.298H98.1734C98.1497 134.296 98.1258 134.299 98.1034 134.307C98.0809 134.315 98.0602 134.327 98.0425 134.343C98.0249 134.359 98.0106 134.378 98.0006 134.4C97.9906 134.421 97.9851 134.445 97.9843 134.468V134.505L101.455 162.26C101.46 162.305 101.481 162.347 101.515 162.378C101.549 162.408 101.593 162.425 101.638 162.425H147.84C147.864 162.424 147.889 162.418 147.912 162.408C147.934 162.398 147.955 162.383 147.972 162.365C147.989 162.347 148.002 162.326 148.011 162.302C148.019 162.279 148.023 162.254 148.023 162.23V162.217Z" fill="#E0E0E0"/>
<path d="M130.442 172.063H119.365V171.922C119.365 171.631 119.48 171.351 119.686 171.144C119.892 170.937 120.171 170.82 120.463 170.818H129.32C129.613 170.818 129.894 170.935 130.101 171.142C130.308 171.349 130.424 171.63 130.424 171.922V172.063H130.442Z" fill="#FAFAFA"/>
<path d="M120.652 172.063H113.143V171.922C113.142 171.778 113.17 171.634 113.225 171.5C113.279 171.366 113.36 171.245 113.462 171.142C113.564 171.04 113.686 170.958 113.819 170.903C113.953 170.847 114.096 170.818 114.241 170.818H119.56C119.852 170.82 120.131 170.937 120.337 171.144C120.543 171.351 120.658 171.631 120.658 171.922V172.063H120.652Z" fill="#F0F0F0"/>
<path d="M53.192 88.5232C53.314 88.1084 53.4299 87.6875 53.5336 87.2727C53.7149 87.562 53.9618 87.8044 54.2543 87.9803C54.5469 88.1562 54.8767 88.2607 55.2172 88.2853H55.3636C56.2603 88.1999 57.1143 87.3276 57.6572 85.9612C57.669 85.9376 57.6752 85.9114 57.6752 85.885C57.6752 85.8585 57.669 85.8324 57.6572 85.8087C57.6448 85.7842 57.6276 85.7624 57.6066 85.7446C57.5857 85.7268 57.5614 85.7134 57.5352 85.705C56.892 85.5421 56.2216 85.5165 55.5679 85.63C54.9141 85.7435 54.2916 85.9936 53.741 86.3638C53.8264 85.9673 53.8935 85.5647 53.9545 85.1438C54.0949 85.1734 54.238 85.1877 54.3815 85.1865C54.8816 85.1412 55.3677 84.9972 55.8117 84.7626C56.2557 84.528 56.6487 84.2077 56.9679 83.8201C57.0026 83.7829 57.0219 83.7338 57.0219 83.6829C57.0219 83.6319 57.0026 83.5829 56.9679 83.5456H56.9191C56.5799 83.3769 56.2088 83.282 55.8303 83.2673C55.4517 83.2526 55.0744 83.3183 54.7231 83.4602C54.3485 83.6508 54.0449 83.9566 53.8569 84.3325C53.585 83.4839 53.0819 82.7278 52.4041 82.1492C51.7264 81.5706 50.9008 81.1923 50.02 81.0568C49.9935 81.0503 49.9658 81.0502 49.9393 81.0566C49.9128 81.063 49.8882 81.0756 49.8675 81.0934C49.8451 81.1098 49.8264 81.1308 49.8127 81.155C49.799 81.1792 49.7907 81.206 49.7882 81.2337C49.715 82.5574 49.7882 84.1861 50.752 84.9547C51.1654 85.2611 51.6715 85.4161 52.1855 85.3939C52.6487 85.387 53.1087 85.3151 53.5519 85.1804C53.4102 86.1381 53.2064 87.0856 52.9419 88.0169C51.9671 86.6978 50.5908 85.7304 49.0196 85.2597C48.9725 85.2545 48.925 85.2656 48.885 85.2911C48.8451 85.3166 48.8151 85.3551 48.8 85.4C48.5011 86.5468 48.6536 87.474 49.2453 88.084C49.5467 88.3515 49.8981 88.5566 50.2792 88.6875C50.6603 88.8184 51.0636 88.8724 51.4657 88.8465C51.898 88.8418 52.3289 88.7968 52.7528 88.7123C52.5088 89.4931 52.216 90.2617 51.9415 90.9876C51.3315 90.4508 49.593 89.121 47.6715 89.6822C47.6212 89.701 47.5798 89.738 47.5556 89.7859C47.5438 89.8096 47.5376 89.8357 47.5376 89.8622C47.5376 89.8886 47.5438 89.9148 47.5556 89.9384C48.0924 91.2072 48.6658 91.9087 49.3856 92.1466C49.5823 92.2122 49.7883 92.2451 49.9956 92.2442C50.5627 92.2214 51.1156 92.0602 51.606 91.7745C51.1973 92.7444 50.7642 93.6472 50.3555 94.4524C49.8647 93.9524 49.2482 93.5938 48.5708 93.4145C47.8935 93.2353 47.1803 93.2419 46.5064 93.4337C46.4606 93.444 46.4203 93.4709 46.3932 93.5092C46.3662 93.5475 46.3543 93.5946 46.36 93.6411C46.4061 94.0466 46.5584 94.4328 46.8015 94.7605C47.0447 95.0883 47.37 95.346 47.7447 95.5077C48.0282 95.6285 48.3332 95.6908 48.6414 95.6907C49.0674 95.6829 49.4855 95.5742 49.8614 95.3735C49.4405 96.1482 49.0562 96.8009 48.7512 97.2889H45.14C44.53 96.3007 43.92 95.0685 43.2307 93.6838C43.5354 93.776 43.8518 93.8233 44.1701 93.8241C44.5047 93.829 44.8369 93.7678 45.1478 93.644C45.4586 93.5202 45.742 93.3364 45.9817 93.1029C46.2214 92.8694 46.4127 92.591 46.5446 92.2835C46.6765 91.976 46.7464 91.6455 46.7504 91.3109C46.7547 91.0867 46.728 90.863 46.6711 90.646C46.6584 90.6025 46.6304 90.565 46.5923 90.5404C46.5543 90.5157 46.5086 90.5056 46.4637 90.5118C45.7189 90.5842 45.0024 90.8348 44.3749 91.2425C43.7474 91.6502 43.2273 92.203 42.8586 92.8542C42.4316 91.8904 42.0107 90.8656 41.6386 89.8042C42.1036 90.0674 42.6238 90.2178 43.1575 90.2434C43.3652 90.2437 43.5715 90.2087 43.7675 90.1397C44.8411 89.7859 45.4572 88.4927 45.9818 87.1568C45.9937 87.1321 45.9999 87.105 45.9999 87.0775C45.9999 87.0501 45.9937 87.023 45.9818 86.9982C45.9694 86.9737 45.9522 86.9519 45.9312 86.9341C45.9103 86.9163 45.886 86.9029 45.8598 86.8945C43.7126 86.2845 41.9497 88.3585 41.4007 89.1027C41.1143 88.2093 40.8761 87.3011 40.687 86.3821C41.1396 86.4687 41.5988 86.5156 42.0595 86.5224C42.5153 86.5559 42.9731 86.4951 43.4044 86.344C43.8357 86.1929 44.2313 85.9546 44.5666 85.644C45.2132 84.9547 45.3718 83.9238 45.0241 82.6733C45.0184 82.6487 45.0078 82.6255 44.993 82.6051C44.9782 82.5846 44.9594 82.5674 44.9378 82.5543C44.9162 82.5412 44.8922 82.5326 44.8672 82.5289C44.8422 82.5253 44.8167 82.5267 44.7923 82.533C43.0722 83.0524 41.5714 84.1244 40.5223 85.583L40.4369 85.095C40.4335 85.054 40.4163 85.0153 40.3881 84.9852C40.2985 84.6679 40.1437 84.3728 39.9336 84.1186C39.7236 83.8644 39.4629 83.6568 39.1681 83.509C38.781 83.3604 38.3669 83.295 37.9528 83.3171C37.5387 83.3391 37.1338 83.4482 36.7647 83.6371C36.7369 83.6499 36.7122 83.6685 36.6922 83.6916C36.6722 83.7148 36.6574 83.742 36.6488 83.7713C36.642 83.8012 36.6424 83.8321 36.6498 83.8618C36.6572 83.8915 36.6715 83.919 36.6915 83.9421C37.0416 84.3598 37.4708 84.7042 37.9545 84.9554C38.4381 85.2067 38.9667 85.3598 39.5097 85.4061C39.6816 85.3999 39.8528 85.3815 40.0221 85.3512C40.0892 85.8026 40.1746 86.2601 40.2722 86.7115C39.6608 86.3097 38.9714 86.0417 38.2492 85.925C37.527 85.8083 36.7883 85.8456 36.0815 86.0344C36.0278 86.0526 35.9824 86.0894 35.9534 86.1381C35.9353 86.1894 35.9353 86.2454 35.9534 86.2967C36.5634 87.7912 37.5272 88.7367 38.5154 88.816H38.6496C39.0237 88.7838 39.3848 88.6629 39.703 88.4635C40.0212 88.2641 40.2874 87.9919 40.4796 87.6692C40.7513 88.7023 41.0771 89.7204 41.4556 90.7192C40.5284 90.28 38.4422 89.4992 36.9477 90.6765C36.9088 90.7068 36.8827 90.7506 36.8748 90.7993C36.8669 90.8479 36.8777 90.8978 36.905 90.9388C37.8688 92.2564 38.735 92.8908 39.6378 92.8908C40.3576 92.8908 41.053 92.4333 41.7423 91.5366C42.1388 92.5187 42.5719 93.4642 42.9623 94.3365C42.0351 93.7631 41.0164 93.8485 39.8147 94.6049C39.7872 94.6228 39.7644 94.6472 39.7485 94.6759C39.7325 94.7046 39.7239 94.7368 39.7232 94.7696C39.7206 94.8008 39.7267 94.8321 39.7407 94.86C39.7546 94.888 39.776 94.9116 39.8025 94.9282C40.5174 95.4449 41.3626 95.7513 42.2425 95.8127C42.6978 95.8256 43.145 95.6907 43.5174 95.4284C43.859 96.0872 44.1945 96.6911 44.5056 97.2584H42.9501V98.2039H43.5601L44.0603 103.2H51.3803L51.8744 98.2039H52.4844V97.295H49.1904C49.5564 96.685 50.02 95.8798 50.5202 94.9343C50.5328 94.9132 50.5431 94.8907 50.5507 94.8672C50.6788 94.6232 50.8069 94.3792 50.935 94.123C51.1525 94.4532 51.4461 94.7264 51.791 94.9196C52.136 95.1128 52.5223 95.2203 52.9175 95.2332H53.1615C53.5989 95.1832 54.0139 95.0132 54.3606 94.7418C54.7072 94.4705 54.9721 94.1086 55.1257 93.696C55.1427 93.6546 55.1433 93.6082 55.1275 93.5664C55.1116 93.5245 55.0805 93.4902 55.0403 93.4703C54.4787 93.1521 53.8493 92.9723 53.2043 92.9457C52.5594 92.9192 51.9174 93.0468 51.3315 93.3178C51.606 92.7078 51.8683 92.0978 52.1428 91.4878C52.1652 91.4642 52.18 91.4345 52.1855 91.4024C52.2587 91.2194 52.3258 91.0364 52.4051 90.8656C53.0151 91.6708 53.6739 92.0856 54.3327 92.0856C55.1318 92.0856 55.9431 91.4756 56.8093 90.2556C56.8248 90.2357 56.8362 90.2129 56.8428 90.1885C56.8494 90.1642 56.851 90.1387 56.8476 90.1137C56.8442 90.0887 56.8358 90.0646 56.823 90.0429C56.8101 90.0212 56.793 90.0022 56.7727 89.9872C55.4063 88.9624 53.558 89.6639 52.6857 90.0726C52.8626 89.5846 53.0273 89.0966 53.1737 88.6025L53.192 88.5232Z" fill="#E0E0E0"/>
<path d="M175.015 202.721H195.2C197.045 202.717 198.815 201.992 200.132 200.701C201.45 199.409 202.21 197.654 202.252 195.81L203.008 158.887C203.034 157.521 202.517 156.2 201.57 155.215C200.623 154.23 199.323 153.662 197.957 153.635H185.214C183.949 153.633 182.728 154.097 181.784 154.939C180.84 155.78 180.239 156.941 180.096 158.197L175.015 202.721Z" fill="#E6E6E6"/>
<path d="M186.05 202.721H164.535C164.268 202.721 164.012 202.615 163.824 202.427C163.635 202.238 163.529 201.982 163.529 201.715V201.617C163.529 200.886 163.819 200.185 164.336 199.668C164.853 199.151 165.555 198.86 166.286 198.86H186.05V202.727V202.721Z" fill="#E6E6E6"/>
<path d="M184.324 233.886C184.22 233.889 184.119 233.854 184.037 233.79C183.956 233.725 183.9 233.634 183.878 233.533L177.577 203.173H166.597L160.302 233.533C160.267 233.642 160.193 233.734 160.094 233.792C159.995 233.85 159.877 233.869 159.765 233.846C159.653 233.822 159.553 233.758 159.486 233.665C159.418 233.572 159.387 233.458 159.399 233.343L165.78 202.63C165.8 202.526 165.856 202.433 165.939 202.367C166.022 202.301 166.125 202.267 166.231 202.27H177.931C178.036 202.268 178.138 202.303 178.219 202.369C178.301 202.435 178.356 202.527 178.376 202.63L184.751 233.343C184.763 233.401 184.764 233.46 184.754 233.518C184.744 233.575 184.722 233.63 184.69 233.68C184.658 233.729 184.617 233.772 184.569 233.805C184.521 233.838 184.466 233.862 184.409 233.874L184.324 233.886Z" fill="#E6E6E6"/>
<path d="M177.51 233.886H177.419C177.301 233.863 177.198 233.794 177.132 233.694C177.066 233.595 177.041 233.473 177.065 233.356L183.445 202.636C183.468 202.533 183.525 202.441 183.607 202.376C183.689 202.31 183.792 202.275 183.897 202.276H195.597C195.701 202.276 195.801 202.312 195.882 202.378C195.963 202.443 196.02 202.534 196.042 202.636L202.416 233.356C202.428 233.414 202.429 233.475 202.417 233.534C202.406 233.593 202.383 233.649 202.35 233.699C202.317 233.749 202.274 233.793 202.224 233.826C202.174 233.86 202.118 233.883 202.059 233.895C202.001 233.907 201.94 233.908 201.881 233.896C201.822 233.885 201.766 233.862 201.716 233.829C201.666 233.796 201.622 233.753 201.589 233.703C201.555 233.653 201.532 233.597 201.52 233.539L195.2 203.179H184.22L177.925 233.539C177.902 233.633 177.849 233.718 177.774 233.78C177.7 233.843 177.607 233.88 177.51 233.886Z" fill="#E6E6E6"/>
<path d="M253.327 224.974H254.584C254.584 222.388 254.584 215.824 254.718 200.769C254.937 173.49 255.377 171.831 255.377 171.831L252.388 184.427C250.484 198.366 252.924 212.396 253.327 224.974Z" fill="#E6E6E6"/>
<path d="M247.758 179.755C241.17 173.246 228.311 172.374 215.171 171.825C210.017 171.611 229.567 181.518 239.37 188.935C246.946 194.694 251.619 196.054 254.144 202.264C254.437 194.206 253.431 185.367 247.758 179.755Z" fill="#E6E6E6"/>
<path d="M254.98 165.603C259.445 157.124 270.675 149.133 283.278 146.083C288.219 144.893 271.81 161.735 265.588 172.606C260.745 181.048 254.321 190.954 253.327 198.079C251.82 183.994 250.527 174.082 254.98 165.603Z" fill="#E0E0E0"/>
<path d="M254.437 233.136C252.325 233.132 250.294 232.321 248.759 230.87C247.224 229.419 246.3 227.437 246.178 225.328L245.421 217.849H263.404L262.648 225.328C262.525 227.428 261.609 229.404 260.085 230.854C258.56 232.303 256.541 233.119 254.437 233.136Z" fill="#EBEBEB"/>
<path d="M264.581 220.729H244.262L243.677 212.396H265.161L264.581 220.729Z" fill="#F0F0F0"/>
<path d="M272.139 46.2258H168.72V120.17H272.139V46.2258Z" fill="#E0E0E0"/>
<path d="M269.858 46.2258H168.72V120.17H269.858V46.2258Z" fill="#F0F0F0"/>
<path d="M266.07 49.3551H172.099V115.333H266.07V49.3551Z" fill="#FAFAFA"/>
<path d="M273.615 42.9989H165.219V44.2921H273.615V42.9989Z" fill="#E0E0E0"/>
<path d="M164.352 45.4756C165.349 45.4756 166.158 44.6672 166.158 43.67C166.158 42.6728 165.349 41.8644 164.352 41.8644C163.355 41.8644 162.547 42.6728 162.547 43.67C162.547 44.6672 163.355 45.4756 164.352 45.4756Z" fill="#E0E0E0"/>
<path d="M273.615 45.4756C274.613 45.4756 275.421 44.6672 275.421 43.67C275.421 42.6728 274.613 41.8644 273.615 41.8644C272.618 41.8644 271.81 42.6728 271.81 43.67C271.81 44.6672 272.618 45.4756 273.615 45.4756Z" fill="#E0E0E0"/>
<path opacity="0.7" d="M256.743 49.3551L226.95 115.333H215.208L245 49.3551H256.743Z" fill="white"/>
<path opacity="0.7" d="M234.197 49.3551L204.405 115.333H183.445L213.238 49.3551H234.197Z" fill="white"/>
<path d="M272.139 75.9146H168.72V78.1593H272.139V75.9146Z" fill="#E0E0E0"/>
<path d="M272.139 72.6145H168.72V74.8593H272.139V72.6145Z" fill="#E0E0E0"/>
<path d="M272.139 69.3204H168.72V71.5652H272.139V69.3204Z" fill="#E0E0E0"/>
<path d="M272.139 66.0204H168.72V68.2652H272.139V66.0204Z" fill="#E0E0E0"/>
<path d="M272.139 62.7263H168.72V64.9711H272.139V62.7263Z" fill="#E0E0E0"/>
<path d="M272.139 59.4324H168.72V61.6772H272.139V59.4324Z" fill="#E0E0E0"/>
<path d="M272.139 56.1322H168.72V58.377H272.139V56.1322Z" fill="#E0E0E0"/>
<path d="M272.139 52.8383H168.72V55.0831H272.139V52.8383Z" fill="#E0E0E0"/>
<path d="M272.139 49.5443H168.72V51.7891H272.139V49.5443Z" fill="#E0E0E0"/>
<path d="M272.139 46.2441H168.72V48.4889H272.139V46.2441Z" fill="#E0E0E0"/>
<path d="M131.839 45.6219H112.935V64.5258H131.839V45.6219Z" fill="#F0F0F0"/>
<path d="M130.363 45.6219H111.459V64.5258H130.363V45.6219Z" fill="#F5F5F5"/>
<path d="M128.911 47.0798H112.917V63.074H128.911V47.0798Z" fill="#FAFAFA"/>
<path d="M113.369 47.0798H112.917V63.074H113.369V47.0798Z" fill="#F0F0F0"/>
<path d="M126.99 51.3499V58.7125C126.372 58.7125 125.779 58.958 125.342 59.395C124.905 59.832 124.66 60.4247 124.66 61.0427H117.852C117.852 60.7362 117.792 60.4327 117.674 60.1496C117.557 59.8665 117.384 59.6093 117.167 59.3929C116.95 59.1764 116.693 59.0049 116.409 58.8882C116.126 58.7714 115.822 58.7117 115.516 58.7125V51.3499C115.822 51.3507 116.126 51.291 116.409 51.1742C116.693 51.0575 116.95 50.886 117.167 50.6695C117.384 50.4531 117.557 50.1959 117.674 49.9128C117.792 49.6297 117.852 49.3262 117.852 49.0197H124.66C124.66 49.3257 124.72 49.6287 124.837 49.9114C124.954 50.1941 125.126 50.451 125.342 50.6674C125.558 50.8837 125.815 51.0554 126.098 51.1725C126.381 51.2896 126.684 51.3499 126.99 51.3499Z" fill="white"/>
<path d="M97.539 45.4695H34.0868V77.7812H97.539V45.4695Z" fill="#E6E6E6"/>
<path d="M94.9648 45.4695H31.5126V77.7812H94.9648V45.4695Z" fill="#F0F0F0"/>
<path d="M92.6834 48.2876H33.9038V74.2187H92.6834V48.2876Z" fill="#F5F5F5"/>
<path opacity="0.7" d="M78.7754 48.2876L67.3989 74.2187H59.475L71.4981 48.2876H78.7754Z" fill="white"/>
<path opacity="0.7" d="M68.7775 48.2876L56.6202 74.2187H53.0883L65.4286 48.2876H68.7775Z" fill="white"/>
<path d="M79.4586 71.8153C79.4586 71.8153 75.579 70.9491 75.03 65.9471C74.5237 61.305 76.5916 60.3839 76.5916 60.3839C76.5916 60.3839 73.9503 55.6381 78.3606 52.9114C82.7709 50.1847 89.5236 53.8203 92.1222 52.5881C94.7208 51.3559 97.6122 52.0452 96.7887 55.7052C95.9652 59.3652 92.11 60.3168 92.11 60.3168L83.2101 58.7552C83.2101 58.7552 87.047 68.7592 84.7717 70.6441C82.4964 72.529 79.4586 71.8153 79.4586 71.8153Z" fill="#263238"/>
<path d="M94.9648 57.0715C94.9648 57.0715 96.8863 64.5379 94.9648 65.825C93.0433 67.1121 92.6285 58.1756 92.6285 58.1756L94.9648 57.0715Z" fill="#263238"/>
<path d="M80.8067 129.387L78.8974 133.474L75.5119 132.986C72.3216 133.498 70.9918 131.687 70.9918 131.687L68.9849 129.857C57.767 119.353 55.876 113.997 56.8398 109.769C57.8585 105.304 64.6173 92.171 66.6547 89.1149C68.6921 86.0588 70.2293 85.2231 70.2293 85.2231C73.9259 83.631 76.7258 84.7778 78.0129 88.7306C79.056 91.927 76.6892 95.2637 74.8653 97.6732C72.6217 100.623 70.5484 103.698 68.6555 106.884C68.0455 107.933 67.4355 109.001 66.8621 110.074C66.612 110.538 65.2334 112.551 65.3859 112.96C66.3253 115.577 71.0467 123.006 72.7059 125.581L73.2793 126.471C79.4037 127.35 80.8067 129.387 80.8067 129.387Z" fill="#263238"/>
<path d="M144.527 86.2235L140.971 88.2548C140.971 88.2548 140.202 89.7676 138.934 91.8843C136.048 96.7094 130.589 104.694 125.764 105.231C119.426 105.762 112.765 102.828 106.073 98.3381C99.3812 93.8485 101.742 83.5761 101.742 83.5761C101.742 83.5761 105.737 84.6985 111.923 89.2735C118.108 93.8485 123.354 96.6423 124.879 97.234C124.879 97.234 130.125 95.5443 135.804 88.9441L137.415 83.7713L142.752 81.9413L144.527 86.2235Z" fill="#263238"/>
<path d="M70.0036 100.931C70.2354 101.26 76.25 130.784 76.25 130.784H104.347C104.347 130.784 104.597 112.734 105.06 108.452C105.524 104.17 108.366 86.4919 101.742 83.5761C101.742 83.5761 94.9953 81.9718 90.0177 81.9047C87.021 81.8641 84.0277 82.1195 81.0812 82.6672C81.0812 82.6672 72.4619 83.1247 70.2232 85.2109C67.9845 87.2971 70.0036 100.931 70.0036 100.931Z" fill="#263238"/>
<path d="M104.347 130.387C104.347 130.387 103.871 172.972 102.596 183.159C101.321 193.346 98.0148 237.369 98.0148 237.369L89.67 235.362C89.67 235.362 89.06 203.319 88.1877 187.404C87.3154 171.489 87.5106 152.634 87.5106 152.634C87.5106 152.634 81.4106 192.284 79.0621 196.103C76.7136 199.921 67.161 221.991 61 233.02L54.2046 227.079C54.2046 227.079 65.27 191.857 67.161 185.916C69.052 179.974 70.699 135.896 76.25 130.784L104.347 130.387Z" fill="#FFC100"/>
<path d="M59.9691 231.727L58.2733 234.319L55.9858 237.821L51.3132 235.393L53.2286 231.525L54.656 228.658L59.9691 231.727Z" fill="#CE7A63"/>
<path d="M144.527 86.2235L140.971 88.2548C140.971 88.2548 140.202 89.7676 138.934 91.8843L135.804 88.9441L137.415 83.7713L142.752 81.9413L144.527 86.2235Z" fill="#CE7A63"/>
<path opacity="0.3" d="M104.34 130.387C104.34 130.387 103.871 172.972 102.596 183.152C101.321 193.333 98.0148 237.369 98.0148 237.369L89.7737 235.985C89.7737 235.985 89.0112 203.319 88.1694 187.398C87.9315 182.86 87.5106 179.407 87.4191 176.754C87.3276 174.1 87.3459 169.434 87.4191 164.865C87.4984 158.252 87.6448 151.823 87.6448 151.823L87.4618 152.994C87.4618 153.165 87.4069 153.354 87.3703 153.555L87.3337 153.799C86.0344 162.01 81.0812 192.772 79.0682 196.078C76.7075 199.921 67.161 221.991 61 233.02L54.2046 227.079C54.2046 227.079 65.2456 191.851 67.1549 185.916C69.0642 179.98 70.6929 135.896 76.2439 130.778L104.34 130.387Z" fill="black"/>
<path opacity="0.2" d="M87.4374 152.988C87.4374 153.159 87.3825 153.348 87.3459 153.549L87.4374 152.988Z" fill="black"/>
<path opacity="0.2" d="M88.7733 144.442C88.7733 144.442 88.6147 156.642 87.3947 164.859C87.474 158.246 87.6204 151.817 87.6204 151.817L88.7733 144.442Z" fill="black"/>
<path d="M91.1828 80.7395C92.0009 81.3779 92.9322 81.856 93.9278 82.1486C93.9278 82.1486 92.5065 83.8566 87.9498 83.5211C86.1747 83.3869 83.9177 84.3569 81.0873 82.6672C81.0873 82.6672 82.2707 75.9083 81.7522 71.9067C81.7522 71.9067 77.0735 69.8998 78.1898 66.8559C79.2024 64.0865 82.3561 67.2646 82.9295 67.8685C82.3683 67.1548 79.0011 62.6591 81.4533 58.9808C82.2385 57.8065 83.2722 56.8192 84.4813 56.0887C85.6904 55.3582 87.0452 54.9024 88.45 54.7535L92.3174 55.7905L93.8729 59.4505C93.8729 59.4505 95.953 62.2687 96.0994 67.9112C96.2458 73.5537 92.9823 75.5545 90.6094 76.2255C90.6094 76.2255 90.5423 76.8355 90.5423 77.659C90.5118 78.7631 90.6155 80.2211 91.1828 80.7395Z" fill="#CE7A63"/>
<path d="M92.4089 68.3566L91.7989 63.7999L94.367 67.3867C94.1239 67.6733 93.8249 67.9071 93.4881 68.0739C93.1514 68.2407 92.7841 68.3369 92.4089 68.3566Z" fill="#BA4D3C"/>
<path d="M87.9498 68.6433C88.3062 69.1055 88.7903 69.4529 89.3422 69.6427C89.894 69.8324 90.4895 69.8561 91.0547 69.7108" stroke="#263238" stroke-linecap="round" stroke-linejoin="round"/>
<path d="M86.7847 62.3419C86.7847 62.3419 87.5167 60.7437 89.0173 60.9877" stroke="#263238" stroke-linecap="round" stroke-linejoin="round"/>
<path d="M93.3788 60.3899C93.8255 60.3316 94.2797 60.3802 94.704 60.5319C95.1282 60.6835 95.5103 60.9339 95.8188 61.2622" stroke="#263238" stroke-linecap="round" stroke-linejoin="round"/>
<path d="M89.5175 64.4159C89.5175 64.8612 89.2918 65.2211 89.0173 65.2211C88.7428 65.2211 88.5171 64.8612 88.5171 64.4159C88.5171 63.9706 88.7428 63.6168 89.0173 63.6168C89.2918 63.6168 89.5175 63.9767 89.5175 64.4159Z" fill="#263238"/>
<path d="M94.5927 64.0866C94.5927 64.5258 94.367 64.8857 94.0925 64.8857C93.818 64.8857 93.5923 64.5258 93.5923 64.0866C93.5923 63.6474 93.818 63.2814 94.0925 63.2814C94.367 63.2814 94.5927 63.6413 94.5927 64.0866Z" fill="#263238"/>
<path d="M86.1442 85.5951L90.0604 84.9973L91.0181 88.7854L89.1942 92.177H88.145L86.1442 89.1331V85.5951Z" fill="#FFC100"/>
<path d="M88.145 92.1771L86.1442 110.075L89.8042 113.6L92.4455 109.995L89.1942 92.1771H88.145Z" fill="#FFC100"/>
<path opacity="0.3" d="M86.1442 85.5951L90.0604 84.9973L91.0181 88.7854L89.1942 92.177H88.145L86.1442 89.1331V85.5951Z" fill="black"/>
<path opacity="0.3" d="M88.145 92.1771L86.1442 110.075L89.8042 113.6L92.4455 109.995L89.1942 92.1771H88.145Z" fill="black"/>
<path d="M87.9498 83.5212L89.9323 88.7428C89.9323 88.7428 95.0563 86.1869 95.8066 81.9047L92.1466 80.6481C90.8732 81.7773 89.4632 82.7425 87.9498 83.5212Z" fill="white"/>
<path d="M81.435 80.3064C81.435 80.3064 84.9791 82.173 87.9498 83.5211L86.7847 88.7427C86.7847 88.7427 80.9165 85.2291 78.9462 82.4841L81.435 80.3064Z" fill="white"/>
<path opacity="0.2" d="M90.585 76.2073C90.585 76.2073 90.5179 76.8173 90.5179 77.6408C89.509 77.3918 88.5355 77.0168 87.6204 76.5245C88.6197 76.6601 89.637 76.5512 90.585 76.2073Z" fill="black"/>
<path d="M82.96 67.8685C83.6233 65.224 83.3873 62.434 82.289 59.9385C82.289 59.9385 89.2491 61.9332 89.2674 55.5953C89.2674 55.5953 79.9832 57.0776 79.5074 60.3777C79.0316 63.6778 82.167 66.9718 82.96 67.8685Z" fill="#263238"/>
<path d="M89.1637 56.5287C89.1637 56.5287 91.8233 60.3046 94.1047 59.5238V54.0338H86.1747L81.984 56.5348L84.8876 59.5238L87.047 57.7487L89.1637 56.5287Z" fill="#263238"/>
<path d="M97.4597 244.232L91.5061 243.927L91.3597 239.413L91.2499 236.119L96.0689 235.637L97.0205 235.68L97.2279 239.754L97.4597 244.232Z" fill="#CE7A63"/>
<path opacity="0.2" d="M97.2279 239.754L91.3597 239.413L91.2499 236.119L96.0689 235.637L97.0205 235.68L97.2279 239.754Z" fill="black"/>
<path d="M88.0169 238.284L99.4666 238.004L100.113 234.27H88.2853L88.0169 238.284Z" fill="#263238"/>
<path d="M98.7407 244.482C98.7407 244.482 100.735 238.602 102.291 239.187C103.846 239.773 98.7407 244.482 98.7407 244.482Z" stroke="#FFC100" stroke-miterlimit="10"/>
<path d="M99.0823 244.482C99.0823 244.482 102.096 241.615 103.31 242.731C104.524 243.847 99.0823 244.482 99.0823 244.482Z" stroke="#FFC100" stroke-miterlimit="10"/>
<path opacity="0.2" d="M59.9691 231.727L58.2733 234.319L53.2286 231.525L54.656 228.658L59.9691 231.727Z" fill="black"/>
<path d="M52.1062 229.384L60.8536 234.014L62.9154 231.477L54.0033 226.469L52.1062 229.384Z" fill="#263238"/>
<path d="M57.6755 239.376C57.6755 239.376 60.1521 236.277 61.1586 237.009C62.1651 237.741 57.6755 239.376 57.6755 239.376Z" stroke="#FFC100" stroke-miterlimit="10"/>
<path d="M58.1269 239.376C58.1269 239.376 62.3969 238.37 62.5799 239.754C62.7629 241.139 58.1269 239.376 58.1269 239.376Z" stroke="#FFC100" stroke-miterlimit="10"/>
<path d="M57.157 236.07L52.5637 233.49C52.243 233.312 51.865 233.268 51.512 233.367C51.159 233.467 50.8595 233.701 50.6788 234.02L48.6109 237.68C48.4311 238.002 48.3859 238.381 48.4854 238.736C48.5849 239.09 48.8209 239.391 49.1416 239.571L62.1773 246.891C62.4986 247.071 62.878 247.116 63.2325 247.017C63.587 246.917 63.8875 246.681 64.0683 246.361C64.2289 246.074 64.2827 245.739 64.2201 245.417C64.1576 245.094 63.9828 244.804 63.7267 244.598C62.0431 243.25 58.5905 240.151 57.828 236.942C57.7821 236.759 57.6988 236.586 57.5833 236.436C57.4679 236.286 57.3227 236.162 57.157 236.07Z" fill="#263238"/>
<path d="M96.9107 241.944H90.8107C90.3847 241.946 89.9766 242.116 89.6759 242.418C89.3752 242.72 89.2064 243.129 89.2064 243.555V248.435C89.2064 248.86 89.3754 249.268 89.6763 249.569C89.9772 249.87 90.3852 250.039 90.8107 250.039H108.11C108.321 250.04 108.531 249.999 108.726 249.919C108.921 249.838 109.099 249.72 109.249 249.571C109.398 249.422 109.517 249.245 109.598 249.05C109.679 248.855 109.721 248.646 109.721 248.435C109.72 248.054 109.585 247.687 109.34 247.396C109.094 247.106 108.754 246.912 108.379 246.849C105.908 246.44 100.674 245.269 98.0819 242.469C97.9328 242.306 97.752 242.176 97.5506 242.085C97.3492 241.995 97.1314 241.947 96.9107 241.944Z" fill="#263238"/>
<path d="M80.8067 129.387L78.8974 133.474L75.5119 132.986C72.3216 133.498 70.9918 131.687 70.9918 131.687L68.9849 129.857L72.712 125.587L73.2854 126.477C79.4037 127.35 80.8067 129.387 80.8067 129.387Z" fill="#CE7A63"/>
<path d="M135.804 88.6757L134.621 90.2495L138.086 93.2751L139.104 91.8843L135.804 88.6757Z" fill="white"/>
<path d="M68.8324 130.028L72.8279 125.355L71.4798 123.641L67.3074 128.661L68.8324 130.028Z" fill="white"/>
<path d="M145.54 59.6276C145.128 60.8534 144.993 62.1558 145.148 63.4399C145.302 64.7241 145.74 65.9577 146.431 67.0513C148.797 70.6381 148.261 58.7797 148.261 58.7797L145.54 59.6276Z" fill="#263238"/>
<path d="M150.389 86.5225C150.389 86.5225 135.749 107.018 132.889 106.158C130.028 105.298 123.434 92.5127 123.434 92.5127L123.049 87.4558L118.73 81.5083L113.24 85.8393L115.9 90.7864C115.9 90.7864 116.693 93.3545 119.035 94.0743C119.035 94.0743 124.422 110.611 131.235 113.716C138.049 116.821 147.504 97.1182 147.504 97.1182L150.389 86.5225Z" fill="#FFB573"/>
<path d="M181.731 235.881L174.173 238.754C164.413 217.319 156.483 154.806 156.483 154.806C156.483 154.806 156.252 156.557 155.904 159.375C154.769 168.708 152.366 189.686 152.854 197.195C153.629 209.828 151.396 241.048 151.396 241.048L142.246 242.133C142.246 242.133 142.557 211.274 141.252 194.175C139.946 177.077 143.942 133.206 143.942 133.206L169.177 132.047C173.508 137.024 174.588 198.287 175.674 203.917C176.76 209.547 181.731 235.881 181.731 235.881Z" fill="#263238"/>
<path d="M141.453 89.5786C141.514 89.2429 141.643 88.923 141.83 88.638C142.018 88.353 142.261 88.1086 142.545 87.9194C144.588 86.553 149.828 83.1492 151.237 83.0394C153.006 82.8991 162.254 80.7275 165.92 83.0394C169.586 85.3513 171.904 92.1467 171.904 92.1467C171.904 92.1467 171.636 123.556 170.001 133.755L143.899 133.212C143.899 133.212 139.794 98.7835 141.453 89.5786Z" fill="#FFC100"/>
<path d="M170.684 100.986L174.759 108.464C174.759 108.464 175.302 125.325 173.948 129.674L171.904 133.755V140.3L176.784 140.977L178.144 135.811C178.144 135.811 178.956 132.004 178.144 130.375C178.144 130.375 183.854 117.321 181.804 106.036C181.804 106.036 171.502 83.32 165.182 82.6917C158.862 82.0634 170.684 100.986 170.684 100.986Z" fill="#FFB573"/>
<path d="M162.364 82.7222C162.364 82.7222 158.332 86.614 154.653 86.5042C150.975 86.3944 151.982 83.259 151.982 83.259C153.873 82.9052 154.489 81.0141 154.666 79.3915C154.753 78.5805 154.753 77.7626 154.666 76.9515C154.666 76.9515 150.28 76.9515 147.815 71.5957C145.351 66.2399 147.815 59.1822 147.815 59.1822C147.815 59.1822 157.13 56.8276 161.302 58.0049C165.475 59.1822 162.162 69.6681 162.162 69.6681C161.077 75.5546 162.364 82.7222 162.364 82.7222Z" fill="#FFB573"/>
<path d="M154.19 64.7637C154.19 65.1846 153.958 65.5262 153.677 65.5262C153.397 65.5262 153.171 65.1846 153.171 64.7637C153.171 64.3428 153.397 64.0012 153.677 64.0012C153.958 64.0012 154.19 64.3428 154.19 64.7637Z" fill="#263238"/>
<path d="M148.993 65.2701C148.993 65.691 148.767 66.0326 148.486 66.0326C148.206 66.0326 147.974 65.691 147.974 65.2701C147.974 64.8492 148.206 64.5076 148.486 64.5076C148.767 64.5076 148.993 64.8309 148.993 65.2701Z" fill="#263238"/>
<path d="M150.713 65.6361V69.7292C150.376 69.8337 150.017 69.8361 149.679 69.7362C149.341 69.6363 149.041 69.4386 148.816 69.168L150.713 65.6361Z" fill="#ED893E"/>
<path d="M152.451 70.4428C152.451 70.4428 154.623 70.4428 155.416 68.6555" stroke="#263238" stroke-linecap="round" stroke-linejoin="round"/>
<path d="M153.171 61.8236C153.171 61.8236 155.062 61.6711 155.611 62.8484" stroke="#263238" stroke-linecap="round" stroke-linejoin="round"/>
<path d="M146.711 63.2632C146.86 62.8914 147.101 62.5637 147.412 62.3108C147.722 62.0579 148.092 61.8881 148.486 61.8175" stroke="#263238" stroke-linecap="round" stroke-linejoin="round"/>
<path opacity="0.2" d="M157.99 76.2988C157.13 77.5658 155.996 78.6228 154.672 79.3915C154.759 78.5805 154.759 77.7625 154.672 76.9515C155.81 76.9536 156.937 76.7319 157.99 76.2988Z" fill="black"/>
<path d="M153.567 86.6322L155.782 86.4248L156.404 91.0486L155.251 93.1653H153.933L152.701 90.8717L153.567 86.6322Z" fill="#263238"/>
<path d="M162.095 80.8617C159.888 83.0787 157.384 84.9777 154.653 86.5042L155.971 89.7738C155.971 89.7738 161.498 88.8222 163.864 82.2647L162.095 80.8617Z" fill="white"/>
<path d="M154.653 86.5042L153.171 89.7738C153.171 89.7738 150.926 87.5595 150.389 83.2834L153.171 81.5083C153.171 81.5083 153.275 84.7108 154.653 86.5042Z" fill="white"/>
<path d="M154.031 91.9453L152.524 111.496L155.056 114.57L157.392 111.307L155.111 91.9453H154.031Z" fill="#263238"/>
<path d="M164.041 66.734C164.041 66.734 158.698 67.3806 157.813 59.6397C157.813 59.6397 148.401 62.4518 145.003 59.5666C141.605 56.6813 144.363 52.9298 144.363 52.9298C144.654 53.6597 145.003 54.3654 145.406 55.0404V52.6004C145.977 53.3508 146.607 54.0545 147.291 54.7049C150.032 55.146 152.841 54.6037 155.221 53.1738C159.302 50.7338 164.493 55.3637 163.535 58.9322C163.565 58.9505 168.165 62.5372 164.041 66.734Z" fill="#263238"/>
<path d="M160.375 66.9536C160.375 66.9536 161.815 61.8479 164.181 63.6474C166.548 65.4469 163.175 70.4733 161.528 70.1866C159.881 69.8999 160.375 66.9536 160.375 66.9536Z" fill="#FFB573"/>
<path d="M118.871 95.1601L124.019 92.3175C124.019 92.3175 129.552 103.005 132.76 104.347C132.76 104.347 139.281 97.7648 141.429 89.5237L144.35 103.261C144.35 103.261 139.293 113.942 132.901 114.094C126.508 114.247 121.268 102.084 118.871 95.1601Z" fill="#FFC100"/>
<path d="M167.024 96.7339L174.783 109.19L173.49 128.484L179.328 129.625C179.328 129.625 183.823 116.205 181.829 106.049C180.383 98.6737 175.814 89.3224 170.513 84.8511C168.629 83.3067 166.298 82.4104 163.864 82.2952C163.864 82.2952 162.431 85.6014 162.504 88.3952C162.577 91.189 167.024 96.7339 167.024 96.7339Z" fill="#FFC100"/>
<path opacity="0.2" d="M171.697 104.225L167.024 96.7339C167.427 97.3805 171.697 110.325 171.697 110.325V104.225Z" fill="black"/>
<path opacity="0.2" d="M156.483 154.806C156.483 154.806 156.251 156.557 155.904 159.375L154.684 144.54L156.483 154.806Z" fill="black"/>
<path d="M178.59 245.122L183.323 242.92L181.963 239.205L180.969 236.491L176.894 237.68L176.137 238.022L177.303 241.408L178.59 245.122Z" fill="#FFB573"/>
<path opacity="0.2" d="M177.303 241.408L181.963 239.205L180.969 236.491L176.894 237.68L176.137 238.022L177.303 241.408Z" fill="black"/>
<path d="M177.626 245.745C177.626 245.745 174.076 241.621 173.002 242.603C171.928 243.585 177.626 245.745 177.626 245.745Z" stroke="#FFC100" stroke-miterlimit="10"/>
<path d="M177.351 245.83C177.351 245.83 173.96 244.488 173.338 245.793C172.715 247.099 177.351 245.83 177.351 245.83Z" stroke="#FFC100" stroke-miterlimit="10"/>
<path d="M178.285 243.085L183.232 241.084C183.577 240.945 183.964 240.949 184.307 241.094C184.65 241.239 184.921 241.514 185.062 241.859L186.66 245.83C186.73 246.001 186.765 246.184 186.763 246.369C186.762 246.553 186.724 246.736 186.653 246.906C186.581 247.076 186.476 247.23 186.344 247.359C186.212 247.489 186.057 247.591 185.885 247.66L171.825 253.339C171.654 253.409 171.47 253.445 171.285 253.444C171.1 253.442 170.917 253.404 170.746 253.332C170.576 253.259 170.422 253.153 170.293 253.02C170.164 252.888 170.063 252.731 169.995 252.558C169.869 252.25 169.857 251.907 169.961 251.591C170.065 251.275 170.278 251.006 170.562 250.832C172.429 249.691 176.308 247.019 177.492 243.896C177.559 243.713 177.664 243.545 177.801 243.405C177.938 243.265 178.103 243.156 178.285 243.085Z" fill="#263238"/>
<path d="M144.003 249.789L149.218 249.661L149.45 245.708L149.621 242.823L145.412 242.292L144.582 242.304L144.302 245.873L144.003 249.789Z" fill="#FFB573"/>
<path opacity="0.2" d="M144.302 245.873L149.45 245.708L149.621 242.823L145.412 242.292L144.582 242.304L144.302 245.873Z" fill="black"/>
<path d="M142.868 249.978C142.868 249.978 141.258 244.781 139.885 245.257C138.513 245.732 142.868 249.978 142.868 249.978Z" stroke="#FFC100" stroke-miterlimit="10"/>
<path d="M142.569 249.972C142.569 249.972 139.995 247.386 138.909 248.337C137.823 249.289 142.569 249.972 142.569 249.972Z" stroke="#FFC100" stroke-miterlimit="10"/>
<path d="M144.533 247.8L149.871 247.941C150.056 247.945 150.238 247.987 150.407 248.062C150.577 248.137 150.729 248.245 150.857 248.379C150.984 248.513 151.084 248.671 151.15 248.844C151.217 249.017 151.248 249.201 151.243 249.386L151.128 253.656C151.123 253.841 151.082 254.023 151.006 254.192C150.931 254.361 150.823 254.513 150.689 254.64C150.554 254.767 150.396 254.866 150.223 254.932C150.051 254.998 149.867 255.028 149.682 255.023L134.523 254.626C134.339 254.621 134.156 254.58 133.988 254.505C133.819 254.43 133.667 254.322 133.54 254.187C133.413 254.053 133.313 253.895 133.248 253.722C133.182 253.549 133.151 253.365 133.157 253.181C133.167 252.847 133.295 252.528 133.518 252.28C133.742 252.032 134.046 251.871 134.377 251.826C136.548 251.521 141.166 250.606 143.496 248.221C143.632 248.084 143.793 247.976 143.972 247.904C144.15 247.832 144.341 247.796 144.533 247.8Z" fill="#263238"/>
<path d="M174.009 240.877L171.392 236.32L182.78 232.105L183.58 238.144L174.009 240.877Z" fill="#FFC100"/>
<path d="M140.977 238.107V244H152.927L153.385 238.107H140.977Z" fill="#FFC100"/>
<path d="M204.765 94.0741C204.765 94.0741 201.3 107.738 197.64 111.972C197.64 111.972 190.997 105.335 188.978 99.558C188.978 99.558 188.789 96.8618 186.861 95.7089L183.976 91.7622L179.163 93.4946L180.316 97.3437L185.324 100.138C185.324 100.138 191.674 117.651 197.445 117.553C203.215 117.455 205.82 109.757 205.82 109.757L208.992 93.2872L204.765 94.0741Z" fill="#FF8B7B"/>
<path d="M185.44 101.779L189.002 99.5581C189.002 99.5581 195.066 109.465 197.902 111.453C197.902 111.453 201.434 105.012 202.642 99.7106C203.276 96.8262 204.055 93.9759 204.978 91.1707L209.016 97.0205C209.016 97.0205 206.363 115.65 200.873 117.541C195.383 119.432 192.278 114.07 191.028 111.959C189.777 109.849 185.44 101.779 185.44 101.779Z" fill="#263238"/>
<path d="M215.97 235.881C215.97 236.107 219.63 241.279 219.63 241.279L223.461 236.326L219.332 230.476L215.97 235.881Z" fill="#FF8B7B"/>
<path d="M217.904 239.303L221.869 235.002C222.148 234.702 222.534 234.525 222.943 234.509C223.353 234.493 223.752 234.64 224.053 234.917L227.493 238.101C227.642 238.238 227.763 238.404 227.848 238.587C227.933 238.771 227.981 238.97 227.989 239.172C227.997 239.375 227.965 239.577 227.894 239.767C227.824 239.956 227.717 240.131 227.579 240.279L216.306 252.479C216.027 252.777 215.642 252.953 215.235 252.969C214.827 252.985 214.429 252.84 214.128 252.564C213.859 252.316 213.687 251.981 213.642 251.618C213.598 251.255 213.683 250.888 213.884 250.582C215.202 248.575 217.788 244.122 217.502 240.468C217.484 240.257 217.511 240.044 217.58 239.843C217.65 239.643 217.76 239.459 217.904 239.303Z" fill="#263238"/>
<path d="M207.754 233.478L218.88 223.718L222.973 232.215L215.367 238.827L207.754 233.478Z" fill="#FFC100"/>
<path d="M203.685 122.885C203.685 122.885 191.686 175.265 191.485 187.831C191.284 200.397 202.246 222.193 209.175 232.398L218.508 224.974L204.984 192.034L211.261 151.018L218.508 234.124L227.463 235.271C227.463 235.271 228.604 203.844 227.463 192.418C226.322 180.993 232.666 142.136 227.969 127.277L203.685 122.885Z" fill="#263238"/>
<path d="M228 127.264C228 127.264 230.043 107.781 233.965 100.15L235.49 91.3231C235.49 91.3231 232.654 87.8339 226.225 87.9437C219.795 88.0535 216.965 87.3337 216.965 87.3337C216.965 87.3337 208.565 86.7664 206.595 88.6208C204.625 90.4752 204.527 98.8688 204.198 102.901C203.868 106.933 203.1 125.471 203.1 125.471L228 127.264Z" fill="#FFC100"/>
<path d="M227.432 87.2971C227.432 87.2971 217.77 98.6126 219.6 127.264L230.897 129.204L229.36 117.321L236.601 95.5992C236.601 95.5992 238.12 88.8343 227.432 87.2971Z" fill="#263238"/>
<path d="M216.416 87.2971C216.416 87.2971 206.009 94.8977 205.21 124.062L199.763 124.214L204.222 100.888C203.439 98.7826 203.337 96.4847 203.929 94.3182C204.539 92.2198 205.198 89.7554 206.601 88.5964C208.833 86.7481 212.39 86.9067 216.416 87.2971Z" fill="#263238"/>
<path d="M229.165 94.1413C229.165 94.1413 235.643 109.867 234.045 116.229C234.045 116.229 222.87 113.356 217.715 108.36C217.715 108.36 216.099 105.634 213.445 105.432L208.345 102.815L204.21 107.159L207.443 110.587L214.153 110.886C214.153 110.886 230.013 125.922 236.027 122.787C238.839 121.317 240.047 118.462 240.535 115.839C240.99 113.265 240.848 110.621 240.12 108.11L235.82 92.72L229.165 94.1413Z" fill="#FF8B7B"/>
<path d="M213.744 112.386L218.16 107.25C218.16 107.25 227.969 114.814 234.02 116.229C233.493 111.062 232.678 105.928 231.58 100.851L228.53 95.5991L228.811 93.3909L236.204 92.4332C236.204 92.4332 242.914 111.191 241.133 117.95C239.352 124.708 235.527 125.379 229.085 122.884C222.644 120.39 213.744 112.386 213.744 112.386Z" fill="#263238"/>
<path d="M227.585 248.856H221.442L221.088 243.744L220.912 241.188L220.808 239.712L227.579 240.279V243.744L227.585 248.856Z" fill="#FF8B7B"/>
<path d="M221.18 246.568H227.03C227.439 246.568 227.832 246.731 228.121 247.02C228.411 247.31 228.573 247.702 228.573 248.111V252.802C228.571 253.211 228.408 253.602 228.119 253.89C227.83 254.178 227.438 254.339 227.03 254.339H210.413C210.211 254.34 210.01 254.301 209.823 254.224C209.636 254.147 209.466 254.034 209.322 253.891C209.179 253.749 209.065 253.579 208.988 253.392C208.91 253.205 208.87 253.005 208.87 252.802C208.869 252.437 208.998 252.083 209.234 251.804C209.47 251.525 209.797 251.338 210.157 251.277C212.53 250.887 217.557 249.765 220.045 247.068C220.19 246.911 220.365 246.785 220.56 246.699C220.755 246.613 220.966 246.569 221.18 246.568Z" fill="#263238"/>
<path opacity="0.1" d="M227.432 87.2971C226.319 88.769 225.378 90.3633 224.626 92.049C222.44 96.8756 220.974 101.997 220.277 107.25L227.432 101.455L225.877 96.4715L234.582 90.1519C234.582 90.1519 232.306 87.84 227.432 87.2971Z" fill="white"/>
<path opacity="0.1" d="M207.973 103.31C207.973 103.31 211.42 91.0181 216.416 87.2971C216.416 87.2971 210.493 86.4736 207.766 87.8583L208.376 96.4715L205.832 97.2706L207.973 103.31Z" fill="white"/>
<path d="M234.704 66.9475C235.875 69.8816 234.618 73.1817 234.734 76.3354C234.783 77.775 235.124 79.1902 235.161 80.6054C235.198 82.0206 234.868 83.5822 233.813 84.5643C232.861 85.461 231.501 85.7294 230.22 85.9673C228.219 86.3272 226.048 86.6688 224.254 85.7172C223.839 85.4976 223.461 85.217 223.034 85.034C222.148 84.7315 221.202 84.6498 220.277 84.7961C219.355 84.9446 218.411 84.8989 217.508 84.6619C214.653 83.6676 216.617 79.7392 217.105 77.7262C217.857 74.6436 218.606 71.5631 219.35 68.4847C222.43 67.8747 225.486 67.0207 228.573 66.3985C229.581 66.111 230.643 66.065 231.672 66.2643C232.636 66.5571 233.74 67.2586 234.704 66.9475Z" fill="#263238"/>
<path d="M234.783 73.0109C234.544 73.8122 234.03 74.5035 233.331 74.9629C232.617 75.3411 232.508 76.0121 232.569 76.7929C232.697 78.6229 233.691 81.2093 230.269 82.6733C229.767 82.9247 229.202 83.0256 228.644 82.964C228.085 82.9023 227.557 82.6806 227.121 82.3256C224.718 80.4285 223.955 75.1093 223.955 75.1093L219.6 62.5494C219.614 62.5222 219.633 62.4975 219.655 62.4762L219.692 62.4091C219.706 62.3841 219.725 62.3615 219.746 62.342C219.901 62.1272 220.07 61.9233 220.253 61.732C220.389 61.5739 220.533 61.4232 220.686 61.2806C222.278 59.8044 225.566 57.9195 230.281 61.0671C235.46 64.5319 235.905 70.0158 234.783 73.0109Z" fill="#263238"/>
<path d="M235.033 74.0722C235.088 75.5301 233.746 76.3658 232.593 76.8233C232.03 77.0356 231.448 77.1929 230.855 77.293C229.781 79.0803 227.457 80.343 227.457 80.343C227.284 81.0057 227.18 81.6843 227.146 82.3682C227.084 84.0235 227.188 85.6809 227.457 87.3153L225.883 89.7553C219.326 92.7565 216.989 87.3153 216.989 87.3153C219.393 87.0591 220.161 85.04 220.387 83.3442C220.479 82.5662 220.479 81.7799 220.387 81.0018C219.322 80.5534 218.378 79.8573 217.636 78.9715C216.893 78.0857 216.373 77.0356 216.117 75.9083C215.342 72.6265 215.977 69.5399 217.337 66.5082C217.884 65.2985 218.539 64.1409 219.295 63.0495L219.6 62.5554C219.614 62.5283 219.633 62.5035 219.655 62.4822C219.681 62.4347 219.712 62.3898 219.746 62.348V62.3053C219.856 62.165 220.015 61.9637 220.222 61.7441H220.259L228.488 60.6766L232.062 63.5314L233.313 70.6074L231.483 72.7851L230.72 73.694L230.531 73.9136L230.769 73.7123C232.221 72.4923 234.075 71.8823 234.752 73.0352C234.928 73.3535 235.024 73.7091 235.033 74.0722Z" fill="#FF8B7B"/>
<path d="M223.919 68.7897C223.815 69.2228 223.498 69.5217 223.217 69.4546C222.937 69.3875 222.784 68.9788 222.888 68.5396C222.992 68.1004 223.309 67.8076 223.595 67.8747C223.882 67.9418 224.029 68.3505 223.919 68.7897Z" fill="#263238"/>
<path d="M219.234 67.5269C219.13 67.9661 218.813 68.265 218.526 68.1979C218.24 68.1308 218.093 67.716 218.197 67.2829C218.301 66.8498 218.618 66.5448 218.905 66.6119C219.191 66.679 219.338 67.0999 219.234 67.5269Z" fill="#263238"/>
<path d="M223.669 67.9052L222.54 67.2952C222.54 67.2952 222.735 68.4481 223.669 67.9052Z" fill="#263238"/>
<path d="M218.99 66.6791L217.861 66.0691C217.861 66.0691 218.075 67.2281 218.99 66.6791Z" fill="#263238"/>
<path d="M220.381 68.0454L219.307 71.9067C219.162 71.9523 219.01 71.9681 218.858 71.9532C218.707 71.9383 218.561 71.8931 218.427 71.8202C218.294 71.7473 218.177 71.6482 218.083 71.5289C217.989 71.4096 217.92 71.2725 217.88 71.1259L220.381 68.0454Z" fill="#FF5652"/>
<path d="M220.613 74.5907C220.613 74.5907 223.278 74.9872 224.041 72.7607" stroke="#263238" stroke-linecap="round" stroke-linejoin="round"/>
<path d="M223.955 65.764C224.181 65.6458 224.429 65.5749 224.683 65.5556C224.937 65.5363 225.192 65.569 225.433 65.6518C225.674 65.7346 225.896 65.8657 226.084 66.0371C226.273 66.2085 226.424 66.4165 226.53 66.6485" stroke="#263238" stroke-linecap="round" stroke-linejoin="round"/>
<path d="M220.24 64.1659C220.039 64.0314 219.812 63.9414 219.573 63.9018C219.334 63.8622 219.09 63.874 218.856 63.9364C218.622 63.9987 218.405 64.1102 218.217 64.2634C218.03 64.4166 217.877 64.6079 217.77 64.8247" stroke="#263238" stroke-linecap="round" stroke-linejoin="round"/>
<path d="M233.959 70.7051L230.8 73.688H230.751C225.468 71.98 226.53 62.22 226.53 62.22C225.035 63.1716 219.74 62.647 219.6 62.5372C219.886 62.1141 220.215 61.7216 220.582 61.366C220.814 61.1403 221.552 61.2074 221.857 61.183L223.803 61.0305L227.744 60.7133C227.859 60.7133 228.408 60.573 228.506 60.6523L232.081 63.5071L233.959 70.7051Z" fill="#263238"/>
<path opacity="0.2" d="M223.077 81.4166C222.388 82.3175 221.441 82.9877 220.363 83.3381C220.455 82.5601 220.455 81.7738 220.363 80.9957C221.24 81.274 222.156 81.416 223.077 81.4166Z" fill="black"/>
<path opacity="0.3" d="M209.944 159.808L210.621 142.392L211.292 151.006L209.944 159.808Z" fill="black"/>
<path opacity="0.1" d="M227.579 240.871V243.744H221.088L220.911 241.188L227.579 240.871Z" fill="black"/>
<path d="M217.203 233.898L218.777 242.713H228.427L229.757 233.478L217.203 233.898Z" fill="#FFC100"/>
</svg>
