<svg width="24" height="24" viewBox="0 0 24 24" fill="none" xmlns="http://www.w3.org/2000/svg">
<path d="M12 0.799805L12.4881 0.230362C12.2073 -0.0103812 11.7928 -0.0103812 11.512 0.230362L12 0.799805ZM0.800049 10.3998L0.311955 9.83036L0.0500488 10.0549V10.3998H0.800049ZM8.80005 23.1998V23.9498C9.21426 23.9498 9.55005 23.614 9.55005 23.1998H8.80005ZM15.2 23.1998H14.45C14.45 23.614 14.7858 23.9498 15.2 23.9498V23.1998ZM23.2 10.3998H23.95V10.0549L23.6881 9.83036L23.2 10.3998ZM2.40005 23.9498H8.80005V22.4498H2.40005V23.9498ZM23.6881 9.83036L12.4881 0.230362L11.512 1.36925L22.712 10.9692L23.6881 9.83036ZM11.512 0.230362L0.311955 9.83036L1.28814 10.9692L12.4881 1.36925L11.512 0.230362ZM9.55005 23.1998V18.3998H8.05005V23.1998H9.55005ZM14.45 18.3998V23.1998H15.95V18.3998H14.45ZM15.2 23.9498H21.6V22.4498H15.2V23.9498ZM23.95 21.5998V10.3998H22.45V21.5998H23.95ZM0.0500488 10.3998V21.5998H1.55005V10.3998H0.0500488ZM12 15.9498C13.3531 15.9498 14.45 17.0467 14.45 18.3998H15.95C15.95 16.2183 14.1816 14.4498 12 14.4498V15.9498ZM12 14.4498C9.81852 14.4498 8.05005 16.2183 8.05005 18.3998H9.55005C9.55005 17.0467 10.647 15.9498 12 15.9498V14.4498ZM21.6 23.9498C22.8979 23.9498 23.95 22.8977 23.95 21.5998H22.45C22.45 22.0692 22.0695 22.4498 21.6 22.4498V23.9498ZM2.40005 22.4498C1.93061 22.4498 1.55005 22.0692 1.55005 21.5998H0.0500488C0.0500488 22.8977 1.10218 23.9498 2.40005 23.9498V22.4498Z" fill="#ADADAD"/>
</svg>
