<svg width="24" height="22" viewBox="0 0 24 22" fill="none" xmlns="http://www.w3.org/2000/svg">
<path d="M17.1333 15.3998H19.3333V13.1998M17.1333 6.59984H19.3333V8.79984M6.86667 6.59984H4.66667V8.79984M4.66667 13.1998V15.3998H6.86667M12 13.9332C10.38 13.9332 9.06667 12.6199 9.06667 10.9998C9.06667 9.3798 10.38 8.0665 12 8.0665C13.62 8.0665 14.9333 9.3798 14.9333 10.9998C14.9333 12.6199 13.62 13.9332 12 13.9332ZM3.2 3.6665H20.8C21.61 3.6665 22.2667 4.32315 22.2667 5.13317V16.8665C22.2667 17.6765 21.61 18.3332 20.8 18.3332H3.2C2.38999 18.3332 1.73334 17.6765 1.73334 16.8665V5.13317C1.73334 4.32315 2.38999 3.6665 3.2 3.6665Z" stroke="#ADADAD" stroke-width="1.5"/>
</svg>
