<svg width="28" height="28" viewBox="0 0 28 28" fill="none" xmlns="http://www.w3.org/2000/svg">
<path d="M17.7968 16.8634L18.3271 16.3331L17.2665 15.2724L16.7361 15.8028L17.7968 16.8634ZM13.5331 20.0664L13.0028 20.5968L13.5331 21.1271L14.0635 20.5968L13.5331 20.0664ZM10.3301 15.8028L9.7998 15.2724L8.73914 16.3331L9.26947 16.8634L10.3301 15.8028ZM16.7361 15.8028L13.0028 19.5361L14.0635 20.5968L17.7968 16.8634L16.7361 15.8028ZM14.0635 19.5361L10.3301 15.8028L9.26947 16.8634L13.0028 20.5968L14.0635 19.5361ZM14.2831 20.0664L14.2831 7.93311L12.7831 7.93311L12.7831 20.0664H14.2831Z" fill="#27BFE0"/>
</svg>
