<svg width="18" height="18" viewBox="0 0 18 18" fill="none" xmlns="http://www.w3.org/2000/svg">
<path d="M0 5.4V0H1.2V5.4C1.2 6.39411 2.00589 7.2 3 7.2C3.99411 7.2 4.8 6.39411 4.8 5.4V1.8C4.8 1.46863 4.53137 1.2 4.2 1.2C3.86863 1.2 3.6 1.46863 3.6 1.8V6H2.4V1.8C2.4 0.805888 3.20589 0 4.2 0C5.19411 0 6 0.805888 6 1.8V5.4C6 7.05685 4.65685 8.4 3 8.4C1.34315 8.4 0 7.05685 0 5.4Z" fill="#FCAE4F"/>
<path fill-rule="evenodd" clip-rule="evenodd" d="M15 0H7.2V5.4C7.2 7.7196 5.3196 9.6 3 9.6H1.2V16.2C1.2 17.1941 2.00589 18 3 18H15C15.9941 18 16.8 17.1941 16.8 16.2V1.8C16.8 0.805888 15.9941 0 15 0ZM13.2 4.8H8.4V6H13.2V4.8ZM13.2 8.4H8.4V9.6H13.2V8.4ZM4.8 12H13.2V13.2H4.8V12Z" fill="#FCAE4F"/>
</svg>
