<svg width="7" height="12" viewBox="0 0 7 12" fill="none" xmlns="http://www.w3.org/2000/svg">
<path d="M6.3334 6.00009C6.33378 6.19481 6.26597 6.3835 6.14173 6.53343L1.97507 11.5334C1.83362 11.7036 1.63036 11.8106 1.41 11.8309C1.18965 11.8513 0.970247 11.7832 0.800067 11.6418C0.629886 11.5003 0.522866 11.2971 0.50255 11.0767C0.482233 10.8563 0.550284 10.6369 0.691733 10.4668L4.42507 6.00009L0.825067 1.53343C0.755845 1.44819 0.704152 1.35011 0.672959 1.24482C0.641766 1.13954 0.631688 1.02913 0.643304 0.919943C0.65492 0.810753 0.688 0.704934 0.740645 0.60857C0.79329 0.512206 0.864461 0.427196 0.950066 0.358427C1.03575 0.282111 1.13627 0.224312 1.24533 0.188651C1.3544 0.152991 1.46965 0.140238 1.58387 0.151191C1.69809 0.162143 1.80881 0.196565 1.90911 0.252301C2.00941 0.308037 2.09711 0.383886 2.16673 0.475095L6.19173 5.47509C6.29633 5.62933 6.34621 5.81418 6.3334 6.00009V6.00009Z" fill="white"/>
</svg>
