<svg width="307" height="307" viewBox="0 0 307 307" fill="none" xmlns="http://www.w3.org/2000/svg">
<path opacity="0.7" d="M41.709 102.593C41.709 102.593 24.5907 146.801 48.6472 191.316C72.7038 235.831 122.254 259.347 161.912 279.456C201.57 299.564 242.751 289.771 262.319 256.836C281.887 223.901 255.049 200.391 255.013 153.426C254.976 106.461 262.043 94.0279 236.593 54.3512C211.142 14.6745 148.754 5.8882 101.574 35.3172C54.3943 64.7462 41.709 102.593 41.709 102.593Z" fill="white"/>
<path d="M37.6137 113.258C60.8351 90.0431 80.5016 109.519 88.7906 78.3463C107.505 7.92668 185.127 8.59595 195.332 58.7045C213.721 148.962 293.817 91.6456 293.222 156.287C292.608 225.307 241.83 279.087 150.774 284.435C69.1917 289.255 -0.865709 151.725 37.6137 113.258Z" fill="#FFC100"/>
<path opacity="0.7" d="M37.6137 113.258C60.8351 90.0431 80.5016 109.519 88.7906 78.3463C107.505 7.92668 185.127 8.59595 195.332 58.7045C213.721 148.962 293.817 91.6456 293.222 156.287C292.608 225.307 241.83 279.087 150.774 284.435C69.1917 289.255 -0.865709 151.725 37.6137 113.258Z" fill="white"/>
<path d="M179.736 76.8053L177.808 75.8229C178.094 74.9762 178.191 74.0769 178.091 73.1888C178.705 73.4836 179.356 73.8028 179.933 74.0669C179.902 74.8589 179.853 75.7922 179.736 76.8053Z" stroke="#263238" stroke-linecap="round" stroke-linejoin="round"/>
<path d="M182.542 75.3317C183.153 75.6432 183.807 75.8626 184.482 75.9826C185.19 79.7578 184.635 83.6609 182.904 87.0898C182.407 88.0599 177.182 85.3829 177.673 84.4128C178.793 82.0143 179.491 79.4408 179.736 76.8053C179.853 75.7922 179.92 74.859 179.951 74.0669C181.044 74.5827 182.002 75.0554 182.542 75.3317Z" stroke="#263238" stroke-linecap="round" stroke-linejoin="round"/>
<path d="M188.774 63.156C190.232 63.9017 191.374 65.1458 191.993 66.662C192.611 68.1783 192.665 69.8661 192.145 71.4189C191.625 72.9716 190.565 74.2861 189.158 75.1236C187.75 75.961 186.089 76.2658 184.476 75.9825C183.801 75.8624 183.147 75.6431 182.536 75.3316C181.996 75.0553 181.038 74.5825 179.945 74.0668C179.331 73.7782 178.717 73.4835 178.103 73.1888C176.593 72.4949 175.131 71.8564 174.376 71.6108L180.983 58.7168C182.358 59.7238 187.227 62.364 188.774 63.156Z" stroke="#263238" stroke-linecap="round" stroke-linejoin="round"/>
<path d="M174.566 52.6136C176.417 54.9228 178.571 56.9716 180.97 58.7045L174.364 71.5985C171.553 70.6777 168.63 70.1387 165.676 69.996L163.115 69.8609L172.939 50.6243L174.566 52.6136Z" stroke="#263238" stroke-linecap="round" stroke-linejoin="round"/>
<path d="M160.137 70.3951L171.656 47.8919C171.745 47.7221 171.897 47.594 172.08 47.5354C172.263 47.4768 172.461 47.4924 172.632 47.5788L173.48 48.0147C173.651 48.1027 173.78 48.2546 173.84 48.4373C173.899 48.6201 173.885 48.819 173.799 48.991L172.958 50.6304L163.134 69.867L162.299 71.5064C162.255 71.5911 162.195 71.6664 162.123 71.728C162.05 71.7896 161.966 71.8362 161.875 71.8653C161.785 71.8944 161.689 71.9053 161.594 71.8975C161.499 71.8896 161.407 71.8631 161.322 71.8195L160.469 71.3836C160.38 71.3425 160.301 71.2838 160.236 71.211C160.171 71.1383 160.122 71.0531 160.091 70.9606C160.06 70.8681 160.048 70.7702 160.056 70.673C160.064 70.5758 160.092 70.4812 160.137 70.3951V70.3951Z" stroke="#263238" stroke-linecap="round" stroke-linejoin="round"/>
<path d="M160.481 56.3652L156.042 54.0934" stroke="#263238" stroke-linecap="round" stroke-linejoin="round"/>
<path d="M165.682 49.2429L162.882 44.3431" stroke="#263238" stroke-linecap="round" stroke-linejoin="round"/>
<path d="M157.749 64.7463L152.143 65.3419" stroke="#263238" stroke-linecap="round" stroke-linejoin="round"/>
<path d="M194.859 43.5511C190.984 39.9613 186.218 37.4744 181.056 36.3489" stroke="#263238" stroke-linecap="round" stroke-linejoin="round"/>
<path d="M186.263 92.714C190.569 90.8915 194.384 88.0782 197.397 84.5031C200.411 80.928 202.538 76.692 203.605 72.1397C204.673 67.5875 204.651 62.8475 203.54 58.3054C202.43 53.7634 200.264 49.5475 197.217 46.0009" stroke="#263238" stroke-linecap="round" stroke-linejoin="round"/>
<path d="M155.373 87.9187C160.75 92.5412 167.61 95.0775 174.701 95.0657" stroke="#263238" stroke-linecap="round" stroke-linejoin="round"/>
<path d="M145.518 70.8187C146.51 76.1622 148.955 81.129 152.585 85.1741" stroke="#263238" stroke-linecap="round" stroke-linejoin="round"/>
<path d="M174.701 35.6611C166.823 35.6611 159.267 38.7908 153.697 44.3616C148.126 49.9325 144.996 57.4881 144.996 65.3665" stroke="#263238" stroke-linecap="round" stroke-linejoin="round"/>
<path d="M114.014 266.329C114.014 266.329 106.713 271.296 103.772 270.964C103.449 270.948 103.142 270.817 102.906 270.596C100.991 268.619 99.4496 265.144 99.4496 265.144C99.4496 265.144 100.364 263.879 103.183 267.237L104.969 265.598L101.285 261.877C101.285 261.877 103.367 260.225 106.904 262.331C106.781 262.074 104.503 257.112 106.222 250.358L97.626 242.063L105.252 235.42L105.866 234.904C105.866 234.904 106.345 235.377 107.094 236.132C107.843 236.887 108.881 237.796 110.004 238.785C112.694 241.148 115.948 243.697 117.372 243.697C119.939 243.611 114.014 266.329 114.014 266.329Z" fill="white"/>
<path opacity="0.4" d="M108.371 263.074C108.371 263.074 104.208 267.372 103.772 270.964C103.449 270.948 103.142 270.817 102.906 270.596C100.991 268.619 99.4496 265.144 99.4496 265.144C99.4496 265.144 100.364 263.879 103.183 267.237L104.969 265.598L101.285 261.877C101.285 261.877 103.367 260.226 106.904 262.332C106.781 262.074 104.503 257.113 106.222 250.359L97.626 242.063L105.252 235.42L107.094 236.114C107.849 236.826 108.881 237.778 110.004 238.766C108.389 241.13 104.933 246.024 104.933 246.024L107.923 250.076C107.923 250.076 106.081 260.293 108.371 263.074Z" fill="#FFC100"/>
<path d="M114.014 266.329C114.014 266.329 106.713 271.296 103.772 270.964C103.449 270.948 103.142 270.817 102.906 270.596C100.991 268.619 99.4496 265.144 99.4496 265.144C99.4496 265.144 100.364 263.879 103.183 267.237L104.969 265.598L101.285 261.877C101.285 261.877 103.367 260.225 106.904 262.331C106.781 262.074 104.503 257.112 106.222 250.358L97.626 242.063L105.252 235.42L105.866 234.904C105.866 234.904 106.345 235.377 107.094 236.132C107.843 236.887 108.881 237.796 110.004 238.785C112.694 241.148 115.948 243.697 117.372 243.697C119.939 243.611 114.014 266.329 114.014 266.329Z" stroke="#263238" stroke-linecap="round" stroke-linejoin="round"/>
<path d="M104.994 265.598C105.399 264.388 106.054 263.278 106.916 262.338" stroke="#263238" stroke-linecap="round" stroke-linejoin="round"/>
<path d="M241.173 208.502C240.021 210.182 238.629 211.684 237.041 212.96C223.619 224.073 192.673 229.538 192.673 229.538C192.673 229.538 191.636 231.091 190.039 233.302C187.178 237.274 182.493 243.377 178.674 246.435C177.059 247.731 175.604 248.48 174.493 248.277L180.301 269.724L182.898 279.032C182.898 279.032 156.214 290.698 110.575 277.362C110.575 277.362 110.053 271.406 110.44 270.135C110.44 270.074 110.477 270.013 110.502 269.945C110.966 269.099 111.573 268.339 112.294 267.698C112.294 267.698 112.037 263.866 111.908 259.968C111.76 257.482 111.791 254.989 112 252.507C112.325 250.543 113.762 245.79 114.486 243.457L114.91 242.1L112.638 220.831L111.987 214.691L111.951 214.372C111.951 214.329 111.951 214.28 111.951 214.218L111.594 210.934L99.8548 214.519C99.8548 214.519 100.469 215.895 101.316 217.823C102.857 221.353 105.123 226.726 105.614 228.875C105.651 229.05 105.7 229.222 105.761 229.39C106.848 232.491 110.987 235.309 110.987 235.309L99.8671 248.302L96.5822 246.005C96.1616 246.316 95.7183 246.596 95.2559 246.84C93.0947 248.013 88.5633 249.738 83.5899 247.104C81.4348 245.893 79.5633 244.235 78.1008 242.241C69.382 230.919 65.5875 221.654 66.8216 210.805C68.0557 199.955 116.881 166.474 126.57 166.824L140.981 170.004C141.294 169.746 142.135 169.083 142.786 169.114C145.407 169.249 145.475 172.294 145.475 172.294L177.771 177.538C177.771 177.538 181.118 175.862 181.701 175.886C182.123 175.915 182.531 176.048 182.888 176.274C183.245 176.501 183.54 176.813 183.746 177.182C183.746 177.182 192.108 172.172 194.798 173.338C203.652 177.157 247.712 198.568 241.173 208.502Z" fill="#FFC100"/>
<path opacity="0.2" d="M128.971 261.564C125.301 265.598 120.373 268.271 114.99 269.147C113.289 269.417 111.797 269.687 110.489 269.957C110.954 269.111 111.56 268.351 112.282 267.71C112.282 267.71 112.024 263.879 111.895 259.98C115.684 262.479 122.29 265.365 128.971 261.564Z" fill="black"/>
<path opacity="0.2" d="M114.474 243.488L114.898 242.131L112.626 220.862C116.021 225.731 128.129 242.315 136.474 244.108C145.199 245.975 121.873 249.284 114.474 243.488Z" fill="black"/>
<path opacity="0.2" d="M180.289 269.755C171.171 268.717 158.283 266.421 156.994 261.65C154.986 254.196 164.755 249.726 178.674 246.466C177.059 247.761 175.604 248.51 174.493 248.308L180.289 269.755Z" fill="black"/>
<path opacity="0.2" d="M237.035 212.966C223.613 224.079 192.667 229.544 192.667 229.544C192.667 229.544 191.629 231.097 190.033 233.308C185.48 222.437 184.785 210.336 188.062 199.016C188.062 199.016 190.444 211.91 200.342 214.98C200.342 214.98 192.765 209.337 195.43 195.755C195.43 195.755 198.015 211.719 214.832 216.153C222.992 218.345 230.981 215.962 237.035 212.966Z" fill="black"/>
<path opacity="0.2" d="M111.938 214.415L111.57 210.976L99.8302 214.562C99.8302 214.562 100.444 215.938 101.292 217.866C96.8032 217.405 88.287 221.55 86.8012 217.031C85.0083 211.554 96.0112 213.439 96.0112 213.439L106.412 207.391C104.448 198.979 109.452 192.655 109.452 192.655L110.403 198.525C110.858 187.368 115.223 181.265 115.223 181.265C111.613 190.088 111.711 211.83 111.938 214.415Z" fill="black"/>
<path opacity="0.2" d="M110.98 235.328L99.8609 248.32L96.576 246.024C96.1555 246.335 95.7122 246.614 95.2498 246.859C93.0885 248.031 88.5572 249.757 83.5838 247.123C87.188 242.137 94.6358 234.8 103.484 231.969C101.312 235.202 99.3548 238.574 97.626 242.063L99.9101 244.311C99.9101 244.311 105.608 237.814 110.98 235.328Z" fill="black"/>
<path opacity="0.2" d="M137.978 178.103C137.978 179.251 137.254 192.225 146.709 195.682C156.165 199.139 164.552 193.293 164.552 193.293C164.552 193.293 150.055 207.28 141.22 199.802C132.385 192.323 137.978 178.103 137.978 178.103Z" fill="black"/>
<path d="M110.557 277.387C110.557 277.387 110.047 271.431 110.428 270.166C110.747 269.098 112.27 267.71 112.27 267.71C112.27 267.71 111.466 255.639 111.981 252.526C112.423 249.855 114.892 242.088 114.892 242.088L111.564 210.933L99.8241 214.525C99.8241 214.525 104.822 225.577 105.596 228.856C106.369 232.135 110.974 235.285 110.974 235.285L99.8548 248.271L96.5699 245.981C96.5699 245.981 86.8687 253.57 78.1069 242.223C69.3451 230.876 65.5813 221.636 66.8093 210.755C68.0373 199.875 116.881 166.431 126.57 166.775L140.981 169.961C141.288 169.703 142.135 169.04 142.78 169.071C145.401 169.206 145.469 172.251 145.469 172.251L177.765 177.495C177.765 177.495 181.118 175.819 181.701 175.843C182.122 175.873 182.528 176.007 182.884 176.233C183.24 176.459 183.534 176.771 183.739 177.139C183.739 177.139 192.102 172.135 194.791 173.295C203.633 177.114 247.688 198.525 241.155 208.459C231.877 222.581 192.649 229.525 192.649 229.525C192.649 229.525 179.601 249.173 174.462 248.265L182.868 279.02" stroke="#263238" stroke-linecap="round" stroke-linejoin="round"/>
<path d="M207.041 210.657C221.863 220.444 233.811 218.639 243.162 206.04C243.162 206.04 250.948 196.001 250.395 185.164C249.843 174.327 247.258 139.022 213.518 148.048C207.962 149.534 195 166.891 193.913 171.662C193.41 173.842 188.209 184.937 183.156 196.425" fill="#FFC100"/>
<path d="M207.041 210.657C221.863 220.444 233.811 218.639 243.162 206.04C243.162 206.04 250.948 196.001 250.395 185.164C249.843 174.327 247.258 139.022 213.518 148.048C207.962 149.534 195 166.891 193.913 171.662C193.41 173.842 188.209 184.937 183.156 196.425" stroke="#263238" stroke-linecap="round" stroke-linejoin="round"/>
<path d="M166.94 106.934C166.94 106.934 176.384 105.504 182.941 111.373C191.236 118.797 200.551 138.813 187.288 171.981C187.288 171.981 167.696 158.977 134.257 167.683C134.257 167.683 137.137 159.904 132.084 135.412C129.8 124.329 135.547 98.7987 166.94 106.934Z" fill="#263238"/>
<path d="M152.628 190.168C166.603 192.434 181.449 176.961 181.449 176.961C181.449 176.961 173.854 176.028 173.173 172.46C170.993 161.206 179.761 147.286 179.761 147.286C179.761 147.286 145.831 148.226 151.762 155.882C152.866 157.283 153.769 158.831 154.446 160.481C156.502 165.534 155.06 169.347 153.985 170.305C153.907 170.369 153.823 170.424 153.733 170.471C151.683 171.404 143.252 170.011 143.252 170.011C143.252 170.011 139.875 188.099 152.628 190.168Z" fill="white" stroke="#263238" stroke-linecap="round" stroke-linejoin="round"/>
<path d="M176.642 181.247C176.642 181.247 170.195 183.825 160.757 183.058L156.509 185.139" stroke="#263238" stroke-linecap="round" stroke-linejoin="round"/>
<path d="M152.272 184.814L151.965 182.026C151.965 182.026 145.002 179.847 142.847 175.708" stroke="#263238" stroke-linecap="round" stroke-linejoin="round"/>
<path d="M153.985 170.324C164.374 173.037 169.255 159.714 169.255 159.714C169.255 159.714 160.942 157.258 154.446 160.524C156.502 165.577 155.078 169.39 153.985 170.324Z" fill="#263238"/>
<path d="M180.362 140.293C182.886 126.103 180.08 109.077 158.48 110.489C143.05 111.496 143.179 128.412 144.198 133.465C145.917 141.957 143.455 145.297 146.101 152.432C148.005 157.558 152.419 163.293 157.62 165.442C160.819 166.762 173.768 157.675 174.726 153.518" fill="white"/>
<path d="M180.362 140.293C182.886 126.103 180.08 109.077 158.48 110.489C143.05 111.496 143.179 128.412 144.198 133.465C145.917 141.957 143.455 145.297 146.101 152.432C148.005 157.558 152.419 163.293 157.62 165.442C160.819 166.762 173.768 157.675 174.726 153.518" stroke="#263238" stroke-linecap="round" stroke-linejoin="round"/>
<path d="M153.224 136.111C153.095 137.708 152.904 141.637 149.54 144.56C147.354 146.445 152.364 148.373 152.364 148.373" stroke="#263238" stroke-linecap="round" stroke-linejoin="round"/>
<path d="M149.638 130.481C149.638 130.481 144.873 128.16 141.656 131.992" stroke="#263238" stroke-linecap="round" stroke-linejoin="round"/>
<path d="M157.632 130.168C160.982 129.197 164.556 129.339 167.818 130.573" stroke="#263238" stroke-linecap="round" stroke-linejoin="round"/>
<path d="M162.581 136.879C162.728 138.248 163.649 139.274 164.638 139.163C165.627 139.053 166.308 137.861 166.161 136.492C166.013 135.123 165.092 134.104 164.104 134.208C163.115 134.312 162.434 135.51 162.581 136.879Z" fill="#263238"/>
<path d="M152.597 152.886C156.385 152.363 160.018 151.036 163.25 148.993C163.25 148.993 163.699 154.949 158.713 156.183C154.888 157.135 153.408 152.769 153.408 152.769" stroke="#263238" stroke-linecap="round" stroke-linejoin="round"/>
<path d="M166.609 115.892C166.609 115.892 165.246 132.71 180.086 138.819L187.043 122.653L176.519 110.987L160.671 106.406C136.99 107.886 126.797 122.597 139.943 161.801C139.943 161.82 136.265 115.131 166.609 115.892Z" fill="#263238"/>
<path d="M176.832 139.531C176.623 137.64 181.406 132.827 183.021 135.915C185.778 141.183 183.77 145.739 180.921 147.581C179.644 148.385 178.023 149.896 176.887 148.471" fill="white"/>
<path d="M176.832 139.531C176.623 137.64 181.406 132.827 183.021 135.915C185.778 141.183 183.77 145.739 180.921 147.581C179.644 148.385 178.023 149.896 176.887 148.471" stroke="#263238" stroke-linecap="round" stroke-linejoin="round"/>
<path d="M148.128 137.536C148.281 138.905 149.202 139.931 150.191 139.82C151.179 139.71 151.861 138.518 151.713 137.149C151.566 135.78 150.639 134.755 149.65 134.865C148.662 134.976 147.974 136.136 148.128 137.536Z" fill="#263238"/>
<g opacity="0.2">
<path opacity="0.2" d="M137.843 134.749C137.665 135.884 137.542 137.039 137.475 138.187" stroke="white" stroke-linecap="round" stroke-linejoin="round"/>
<path opacity="0.2" d="M164.153 112.835C152.155 112.522 141.005 120.166 138.365 132.17" stroke="white" stroke-linecap="round" stroke-linejoin="round"/>
<path opacity="0.2" d="M162.01 109.409C162.01 109.409 144.708 105.338 138.224 116.814" stroke="white" stroke-linecap="round" stroke-linejoin="round"/>
<path opacity="0.2" d="M176.046 129.401C177.089 130.886 178.345 132.21 179.773 133.33" stroke="white" stroke-linecap="round" stroke-linejoin="round"/>
<path opacity="0.2" d="M169.182 111.65C170.066 117.146 171.925 122.44 174.671 127.282" stroke="white" stroke-linecap="round" stroke-linejoin="round"/>
<path opacity="0.2" d="M186.564 163.692C186.257 165.068 185.895 166.431 185.489 167.782" stroke="white" stroke-linecap="round" stroke-linejoin="round"/>
<path opacity="0.2" d="M185.563 140.827C188.369 147.059 188.179 154.814 187.024 161.372" stroke="white" stroke-linecap="round" stroke-linejoin="round"/>
<path opacity="0.2" d="M183.506 151.658C183.643 154.018 183.279 156.381 182.438 158.591C181.596 160.8 180.297 162.807 178.625 164.478" stroke="white" stroke-linecap="round" stroke-linejoin="round"/>
<path opacity="0.2" d="M175.53 113.658C178.471 117.636 180.657 121.904 184.065 125.539C187.657 129.364 191.249 133.748 191.924 139.139" stroke="white" stroke-linecap="round" stroke-linejoin="round"/>
<path opacity="0.2" d="M171.38 109.519C172.222 110.072 172.997 110.721 173.688 111.453" stroke="white" stroke-linecap="round" stroke-linejoin="round"/>
</g>
<path d="M230.563 201.852C230.219 201.926 229.875 201.988 229.519 202.037C220.236 203.363 209.822 195.663 206.31 186.423C203.535 179.122 205.96 170.839 207.286 167.297C207.704 166.185 208.005 165.541 208.005 165.541C213.604 157.559 246.159 173.185 246.539 181.805C246.92 190.426 240.074 199.765 230.563 201.852Z" fill="#263238" stroke="#263238" stroke-linecap="round" stroke-linejoin="round"/>
<path d="M240.749 182.972C240.749 182.972 238.907 196.677 229.519 202.037C220.236 203.363 209.822 195.663 206.31 186.423C203.535 179.122 205.96 170.839 207.286 167.297C218.259 161.028 240.749 182.972 240.749 182.972Z" fill="white"/>
<path opacity="0.4" d="M240.749 182.972C240.749 182.972 238.907 196.677 229.519 202.037C220.236 203.363 209.822 195.663 206.31 186.423C203.535 179.122 205.96 170.839 207.286 167.297C218.259 161.028 240.749 182.972 240.749 182.972Z" fill="#FFC100"/>
<path d="M240.749 182.972C240.749 182.972 238.907 196.677 229.519 202.037C220.236 203.363 209.822 195.663 206.31 186.423C203.535 179.122 205.96 170.839 207.286 167.297C218.259 161.028 240.749 182.972 240.749 182.972Z" stroke="#263238" stroke-linecap="round" stroke-linejoin="round"/>
<path d="M202.356 190.187C202.356 190.187 212.929 205.365 225.277 206.629C237.624 207.894 245.539 197.493 246.024 189.652" stroke="#263238" stroke-linecap="round" stroke-linejoin="round"/>
<path d="M196.412 121.695C197.34 119.098 204.008 119.969 206.126 128.074C208.244 136.179 216.564 155.882 216.564 155.882C216.564 155.882 249.72 107.125 255.639 105.246C261.558 103.367 259.231 111.815 251.292 123.537C251.292 123.537 258.727 122.229 260.68 123.537C262.632 124.845 261.681 132.747 262.718 135.485C264.462 140.109 260.588 141.085 260.588 141.085C262.488 141.127 264.316 141.823 265.764 143.056C267.894 145.051 266.826 153.297 267.434 155.631C268.042 157.964 263.977 159.929 263.977 159.929C263.977 159.929 273.746 165.252 271.541 166.59C267.821 168.838 265.702 166.535 265.702 166.535C265.702 166.535 250.69 185.385 239.368 189.585C228.046 193.784 206.009 177.096 203.639 168.009C201.269 158.922 204.1 159.48 202.301 144.357C200.502 129.235 196.412 121.695 196.412 121.695Z" fill="white" stroke="#263238" stroke-linecap="round" stroke-linejoin="round"/>
<path d="M244.751 91.7365L201.094 103.117C199.545 103.52 198.617 105.103 199.02 106.652L219.657 185.822C220.061 187.371 221.644 188.299 223.193 187.895L266.85 176.515C268.399 176.112 269.328 174.529 268.924 172.98L248.287 93.8099C247.883 92.261 246.3 91.3328 244.751 91.7365Z" fill="white" stroke="#263238" stroke-linecap="round" stroke-linejoin="round"/>
<path d="M219.738 100.837C219.762 100.927 219.767 101.021 219.754 101.113C219.741 101.205 219.711 101.293 219.664 101.373C219.617 101.454 219.554 101.524 219.48 101.58C219.406 101.636 219.322 101.676 219.232 101.7C219.142 101.723 219.048 101.729 218.956 101.716C218.864 101.703 218.776 101.672 218.695 101.625C218.615 101.578 218.545 101.516 218.489 101.442C218.433 101.368 218.392 101.283 218.369 101.193C218.344 101.103 218.337 101.009 218.349 100.917C218.361 100.824 218.392 100.735 218.439 100.654C218.485 100.574 218.548 100.503 218.623 100.447C218.697 100.391 218.782 100.35 218.873 100.328C219.055 100.281 219.248 100.308 219.411 100.404C219.573 100.499 219.691 100.655 219.738 100.837Z" fill="#FFC100" stroke="#263238" stroke-linecap="round" stroke-linejoin="round"/>
<path d="M228.733 98.4917C228.748 98.5482 228.752 98.607 228.743 98.6647C228.735 98.7225 228.716 98.7781 228.686 98.8284C228.657 98.8786 228.617 98.9224 228.571 98.9574C228.524 98.9924 228.471 99.0177 228.414 99.032C228.33 99.0534 228.24 99.0493 228.158 99.0202C228.076 98.9911 228.004 98.9382 227.952 98.8683C227.899 98.7984 227.869 98.7147 227.864 98.6275C227.859 98.5403 227.881 98.4537 227.925 98.3786C227.969 98.3034 228.035 98.2431 228.114 98.2052C228.192 98.1673 228.281 98.1535 228.367 98.1656C228.453 98.1777 228.534 98.2152 228.6 98.2732C228.665 98.3312 228.711 98.4073 228.733 98.4917Z" fill="#FFC100" stroke="#263238" stroke-linecap="round" stroke-linejoin="round"/>
<path d="M226.584 99.5991L221.313 100.958C221.208 100.985 221.145 101.092 221.172 101.197L221.199 101.305C221.226 101.41 221.334 101.473 221.439 101.446L226.71 100.087C226.815 100.06 226.879 99.953 226.851 99.8478L226.824 99.7406C226.797 99.6353 226.689 99.572 226.584 99.5991Z" fill="#FFC100" stroke="#263238" stroke-width="1.0017" stroke-linecap="round" stroke-linejoin="round"/>
<path d="M246.975 94.6297L267.44 173.148C267.554 173.588 267.489 174.056 267.259 174.449C267.028 174.841 266.652 175.126 266.212 175.242L223.115 186.472C222.675 186.586 222.207 186.521 221.815 186.29C221.422 186.06 221.137 185.684 221.022 185.244L200.557 106.725C200.443 106.285 200.508 105.817 200.738 105.425C200.969 105.032 201.345 104.747 201.785 104.632L210.633 102.323C210.917 102.249 211.216 102.263 211.492 102.364C211.767 102.465 212.005 102.648 212.174 102.888L212.819 103.803C212.987 104.043 213.225 104.226 213.501 104.327C213.776 104.428 214.076 104.442 214.36 104.368L233.781 99.3084C234.061 99.235 234.314 99.0785 234.504 98.8594C234.695 98.6403 234.815 98.3688 234.849 98.0804L234.966 96.969C234.998 96.68 235.117 96.4077 235.308 96.1883C235.499 95.9689 235.752 95.8129 236.034 95.741L244.882 93.4324C245.318 93.3173 245.782 93.3783 246.174 93.6023C246.565 93.8263 246.853 94.1953 246.975 94.6297Z" fill="#FFC100" stroke="#263238" stroke-linecap="round" stroke-linejoin="round"/>
<path d="M248.476 138.69C252.481 129.468 248.251 118.745 239.028 114.741C229.805 110.736 219.083 114.967 215.078 124.189C211.074 133.412 215.304 144.134 224.527 148.139C233.75 152.143 244.472 147.913 248.476 138.69Z" fill="white" stroke="#263238" stroke-linecap="round" stroke-linejoin="round"/>
<path d="M224.257 141.895C224.413 142.261 224.698 142.557 225.059 142.725C225.42 142.892 225.83 142.921 226.21 142.804L232.196 141.079C232.21 141.208 232.234 141.335 232.27 141.459C232.361 141.772 232.512 142.064 232.716 142.318C232.919 142.573 233.171 142.785 233.456 142.942C233.742 143.099 234.055 143.198 234.379 143.234C234.703 143.27 235.03 143.242 235.343 143.151C235.656 143.06 235.948 142.909 236.202 142.705C236.457 142.502 236.668 142.25 236.825 141.965C236.982 141.679 237.082 141.366 237.118 141.042C237.154 140.718 237.125 140.391 237.035 140.078C236.997 139.954 236.949 139.833 236.893 139.716L242.874 137.99C243.264 137.886 243.602 137.639 243.819 137.298C244.036 136.957 244.117 136.546 244.047 136.148C244.009 135.932 243.926 135.726 243.803 135.544C243.68 135.362 243.52 135.207 243.333 135.091C243.146 134.976 242.937 134.9 242.72 134.871C242.502 134.841 242.28 134.858 242.069 134.92L241.566 134.613C240.475 133.961 239.672 132.918 239.319 131.697L238.183 127.761C237.715 126.14 236.677 124.744 235.259 123.829C233.841 122.915 232.14 122.545 230.471 122.788C230.758 122.485 230.937 122.097 230.981 121.683C231.025 121.268 230.931 120.851 230.714 120.495C230.497 120.14 230.17 119.865 229.781 119.714C229.393 119.563 228.966 119.544 228.566 119.66C228.165 119.776 227.815 120.021 227.567 120.356C227.32 120.691 227.19 121.099 227.197 121.515C227.204 121.932 227.348 122.334 227.607 122.661C227.866 122.987 228.225 123.22 228.629 123.322C227.072 124.002 225.816 125.226 225.097 126.766C224.378 128.305 224.246 130.054 224.724 131.685L225.872 135.663C226.076 136.358 226.127 137.089 226.021 137.806C225.915 138.523 225.655 139.208 225.258 139.814C225.05 139.877 224.858 139.982 224.693 140.123C224.527 140.264 224.394 140.439 224.3 140.634C224.205 140.83 224.153 141.043 224.146 141.26C224.139 141.477 224.176 141.694 224.257 141.895ZM230.158 121.228C230.218 121.438 230.215 121.661 230.149 121.87C230.083 122.078 229.956 122.262 229.786 122.398C229.615 122.535 229.407 122.617 229.19 122.636C228.972 122.654 228.754 122.608 228.562 122.502C228.371 122.397 228.215 122.237 228.115 122.043C228.014 121.849 227.973 121.629 227.998 121.412C228.022 121.195 228.11 120.99 228.251 120.822C228.392 120.655 228.579 120.534 228.789 120.473C228.928 120.432 229.074 120.419 229.219 120.434C229.364 120.45 229.504 120.494 229.631 120.564C229.758 120.635 229.871 120.73 229.961 120.843C230.051 120.957 230.118 121.088 230.158 121.228Z" fill="#FFC100" stroke="#263238" stroke-linecap="round" stroke-linejoin="round"/>
<path d="M235.807 139.814L233.167 140.581" stroke="#263238" stroke-linecap="round" stroke-linejoin="round"/>
<path d="M239.712 135.59L227.61 139.089" stroke="#263238" stroke-linecap="round" stroke-linejoin="round"/>
<path d="M252.354 160.045L227.794 166.443C227.092 166.628 226.36 166.673 225.64 166.575C224.92 166.477 224.227 166.238 223.6 165.872C222.973 165.506 222.424 165.02 221.984 164.442C221.545 163.863 221.224 163.204 221.04 162.501C220.855 161.799 220.81 161.066 220.909 160.346C221.007 159.626 221.246 158.933 221.613 158.305C221.98 157.678 222.467 157.129 223.046 156.69C223.625 156.251 224.285 155.931 224.988 155.747L249.548 149.349C250.962 148.985 252.463 149.195 253.723 149.933C254.983 150.672 255.899 151.879 256.271 153.291C256.646 154.706 256.444 156.212 255.71 157.479C254.975 158.745 253.768 159.668 252.354 160.045Z" fill="#263238"/>
<path d="M225.086 158.774C225.171 158.63 225.285 158.506 225.422 158.409C225.558 158.313 225.714 158.247 225.878 158.216C226.037 158.162 226.205 158.144 226.372 158.162C226.538 158.18 226.699 158.234 226.842 158.32C227.125 158.53 227.318 158.839 227.383 159.186L227.426 159.345L226.67 159.542L226.615 159.333C226.592 159.195 226.523 159.07 226.419 158.977C226.37 158.946 226.315 158.927 226.257 158.92C226.2 158.914 226.142 158.921 226.087 158.94C226.031 158.95 225.977 158.972 225.931 159.007C225.886 159.041 225.848 159.085 225.823 159.137C225.777 159.268 225.777 159.411 225.823 159.542C225.872 159.743 225.984 159.924 226.142 160.058C226.344 160.217 226.562 160.355 226.793 160.469C226.992 160.569 227.185 160.682 227.37 160.807C227.532 160.919 227.675 161.055 227.794 161.212C227.931 161.396 228.031 161.604 228.089 161.826C228.2 162.163 228.178 162.53 228.027 162.851C227.837 163.127 227.553 163.325 227.229 163.41C226.904 163.494 226.56 163.46 226.259 163.312C225.968 163.107 225.77 162.796 225.706 162.446L225.627 162.133L226.382 161.936L226.474 162.299C226.56 162.63 226.738 162.759 227.014 162.685C227.29 162.612 227.389 162.415 227.303 162.071C227.252 161.871 227.141 161.69 226.983 161.556C226.783 161.396 226.564 161.26 226.333 161.15C226.134 161.046 225.942 160.931 225.756 160.807C225.594 160.695 225.451 160.558 225.332 160.401C225.194 160.218 225.094 160.01 225.037 159.787C224.929 159.455 224.947 159.095 225.086 158.774Z" fill="white"/>
<path d="M229.311 161.568C229.397 161.893 229.581 162.022 229.857 161.955C230.133 161.887 230.225 161.678 230.139 161.341L229.12 157.423L229.875 157.227L230.882 161.089C230.993 161.426 230.971 161.793 230.821 162.114C230.736 162.26 230.621 162.386 230.483 162.483C230.346 162.581 230.189 162.648 230.023 162.679C229.863 162.73 229.694 162.747 229.528 162.731C229.361 162.714 229.199 162.663 229.053 162.581C228.767 162.368 228.57 162.058 228.5 161.709L227.493 157.847L228.291 157.638L229.311 161.568Z" fill="white"/>
<path d="M232.595 156.834C232.731 156.928 232.847 157.047 232.936 157.187C233.025 157.326 233.084 157.482 233.111 157.644L233.154 157.823C233.222 158.043 233.236 158.277 233.197 158.504C233.158 158.692 233.056 158.861 232.909 158.983C233.345 159.032 233.639 159.345 233.787 159.91L233.891 160.328C233.946 160.487 233.968 160.656 233.956 160.823C233.943 160.991 233.896 161.155 233.817 161.304C233.725 161.446 233.604 161.567 233.462 161.66C233.321 161.753 233.162 161.816 232.995 161.844L231.767 162.176L230.44 157.098L231.668 156.779C231.973 156.681 232.304 156.7 232.595 156.834ZM231.754 158.952L232.067 158.872C232.134 158.861 232.197 158.836 232.253 158.799C232.309 158.762 232.356 158.714 232.393 158.658C232.449 158.514 232.449 158.353 232.393 158.209L232.319 157.927C232.295 157.785 232.223 157.655 232.117 157.559C232.068 157.525 232.012 157.503 231.953 157.496C231.894 157.488 231.834 157.495 231.779 157.516L231.392 157.614L231.754 158.952ZM232.368 161.243L232.823 161.12C232.881 161.111 232.936 161.089 232.985 161.056C233.034 161.023 233.075 160.98 233.105 160.929C233.154 160.794 233.154 160.647 233.105 160.512L232.988 160.07C232.96 159.897 232.873 159.739 232.743 159.622C232.678 159.585 232.606 159.563 232.532 159.557C232.458 159.55 232.383 159.56 232.313 159.585L231.957 159.683L232.368 161.243Z" fill="white"/>
<path d="M233.627 156.57C233.71 156.424 233.824 156.299 233.961 156.202C234.098 156.106 234.254 156.041 234.419 156.011C234.577 155.957 234.745 155.937 234.912 155.954C235.078 155.971 235.239 156.024 235.383 156.109C235.668 156.321 235.863 156.633 235.929 156.981L235.972 157.141L235.217 157.337L235.162 157.123C235.14 156.985 235.068 156.86 234.959 156.773C234.912 156.741 234.858 156.72 234.802 156.713C234.745 156.705 234.688 156.711 234.634 156.73C234.577 156.739 234.523 156.762 234.476 156.796C234.429 156.83 234.391 156.875 234.364 156.926C234.318 157.057 234.318 157.2 234.364 157.331C234.411 157.532 234.52 157.713 234.677 157.847C234.882 158.005 235.102 158.143 235.334 158.258C235.567 158.381 235.758 158.498 235.911 158.596C236.07 158.711 236.212 158.848 236.335 159.001C236.471 159.185 236.569 159.394 236.623 159.615C236.739 159.951 236.719 160.319 236.568 160.641C236.483 160.786 236.367 160.912 236.23 161.009C236.092 161.106 235.935 161.173 235.77 161.206C235.609 161.257 235.439 161.275 235.271 161.258C235.103 161.241 234.941 161.19 234.794 161.107C234.508 160.896 234.313 160.585 234.247 160.236L234.161 159.929L234.916 159.726L235.015 160.094C235.101 160.42 235.279 160.549 235.555 160.475C235.831 160.401 235.923 160.205 235.837 159.861C235.789 159.663 235.679 159.484 235.524 159.351C235.322 159.19 235.101 159.052 234.867 158.94C234.671 158.836 234.48 158.721 234.296 158.596C234.132 158.488 233.988 158.35 233.873 158.191C233.73 158.011 233.629 157.801 233.578 157.577C233.47 157.247 233.487 156.888 233.627 156.57Z" fill="white"/>
<path d="M239.399 158.879C239.509 159.216 239.487 159.582 239.337 159.904C239.251 160.048 239.136 160.173 238.998 160.269C238.861 160.365 238.704 160.431 238.539 160.463C238.38 160.517 238.211 160.536 238.043 160.519C237.876 160.502 237.714 160.449 237.569 160.364C237.278 160.159 237.08 159.849 237.016 159.499L236.329 156.859C236.216 156.522 236.236 156.155 236.384 155.833C236.469 155.688 236.585 155.562 236.722 155.465C236.86 155.368 237.017 155.301 237.182 155.268C237.343 155.217 237.512 155.199 237.68 155.216C237.848 155.233 238.011 155.284 238.158 155.367C238.444 155.578 238.639 155.889 238.705 156.238L238.834 156.73L238.078 156.926L237.937 156.38C237.851 156.048 237.673 155.919 237.397 155.993C237.121 156.066 237.029 156.263 237.114 156.607L237.827 159.345C237.913 159.677 238.091 159.806 238.367 159.732C238.643 159.658 238.742 159.462 238.656 159.118L238.465 158.394L239.221 158.197L239.399 158.879Z" fill="white"/>
<path d="M241.75 159.315C241.702 159.188 241.663 159.059 241.634 158.928L241.425 158.13C241.395 157.952 241.306 157.79 241.173 157.669C241.107 157.629 241.034 157.604 240.957 157.596C240.881 157.587 240.804 157.595 240.731 157.62L240.461 157.694L240.995 159.763L240.197 159.972L238.877 154.894L240.105 154.574C240.258 154.505 240.425 154.474 240.592 154.482C240.76 154.491 240.923 154.539 241.068 154.623C241.214 154.707 241.337 154.824 241.428 154.965C241.518 155.106 241.574 155.267 241.591 155.434L241.695 155.839C241.774 156.036 241.792 156.251 241.748 156.458C241.703 156.665 241.597 156.854 241.443 157C241.642 157.024 241.822 157.126 241.947 157.282C242.094 157.479 242.199 157.705 242.254 157.945L242.456 158.731C242.493 158.872 242.53 158.989 242.561 159.075C242.596 159.163 242.643 159.246 242.702 159.321L241.891 159.536C241.834 159.469 241.787 159.394 241.75 159.315ZM240.27 156.969L240.577 156.889C240.645 156.876 240.709 156.85 240.765 156.812C240.822 156.774 240.871 156.725 240.909 156.668C240.964 156.526 240.964 156.368 240.909 156.226L240.774 155.723C240.753 155.581 240.684 155.45 240.577 155.354C240.528 155.32 240.47 155.299 240.411 155.291C240.351 155.284 240.29 155.291 240.234 155.311L239.853 155.41L240.27 156.969Z" fill="white"/>
<path d="M242.591 153.924L243.911 159.001L243.113 159.21L241.793 154.114L242.591 153.924Z" fill="white"/>
<path d="M245.348 153.5C245.482 153.593 245.597 153.713 245.684 153.851C245.772 153.989 245.831 154.143 245.858 154.304L245.907 154.488C245.971 154.708 245.986 154.938 245.95 155.164C245.908 155.351 245.807 155.519 245.661 155.643C246.097 155.698 246.386 156.005 246.539 156.576L246.644 156.994C246.698 157.152 246.72 157.319 246.707 157.486C246.694 157.653 246.648 157.816 246.57 157.964C246.478 158.107 246.358 158.229 246.216 158.323C246.074 158.417 245.915 158.481 245.747 158.51L244.519 158.836L243.144 153.77L244.372 153.457C244.69 153.342 245.041 153.357 245.348 153.5ZM244.507 155.618L244.82 155.538C244.952 155.512 245.069 155.434 245.146 155.323C245.202 155.179 245.202 155.019 245.146 154.875L245.072 154.593C245.046 154.45 244.975 154.319 244.869 154.218C244.819 154.186 244.762 154.165 244.702 154.158C244.643 154.15 244.582 154.156 244.525 154.175L244.145 154.28L244.507 155.618ZM245.121 157.902L245.575 157.786C245.634 157.775 245.689 157.752 245.738 157.718C245.787 157.684 245.827 157.64 245.858 157.589C245.908 157.457 245.908 157.31 245.858 157.178L245.747 156.736C245.719 156.561 245.632 156.401 245.502 156.281C245.436 156.246 245.364 156.225 245.29 156.22C245.216 156.215 245.142 156.225 245.072 156.251L244.716 156.343L245.121 157.902Z" fill="white"/>
<path d="M248.566 154.648L248.756 155.379L247.657 155.661L248.044 157.147L249.425 156.791L249.616 157.516L247.436 158.08L246.116 153.003L248.289 152.438L248.48 153.162L247.104 153.525L247.473 154.937L248.566 154.648Z" fill="white"/>
<path d="M250.045 151.977C250.206 151.925 250.375 151.906 250.543 151.922C250.711 151.938 250.874 151.988 251.022 152.069C251.305 152.273 251.499 152.579 251.562 152.923L252.231 155.496C252.347 155.827 252.327 156.191 252.176 156.509C252.089 156.652 251.972 156.775 251.833 156.869C251.694 156.963 251.537 157.027 251.372 157.055L250.107 157.387L248.781 152.309L250.045 151.977ZM250.715 156.453L251.163 156.337C251.22 156.325 251.275 156.302 251.322 156.268C251.37 156.234 251.41 156.191 251.439 156.14C251.485 156.009 251.485 155.866 251.439 155.735L250.751 153.095C250.724 152.958 250.65 152.834 250.543 152.745C250.494 152.717 250.44 152.699 250.384 152.693C250.328 152.686 250.271 152.692 250.217 152.708L249.763 152.825L250.715 156.453Z" fill="white"/>
<path d="M192.667 229.568C192.667 229.568 185.213 212.223 188.983 191.187" stroke="#263238" stroke-linecap="round" stroke-linejoin="round"/>
<path d="M174.48 248.308C174.48 248.308 159.413 252.913 157.902 256.382C156.392 259.851 164.656 256.928 164.656 256.928" stroke="#263238" stroke-linecap="round" stroke-linejoin="round"/>
<path d="M183.746 177.182C183.746 177.182 169.869 190.936 160.586 194.601" stroke="#263238" stroke-linecap="round" stroke-linejoin="round"/>
<path d="M138.279 173.486C138.279 173.486 135.749 192.053 145.186 195.559" stroke="#263238" stroke-linecap="round" stroke-linejoin="round"/>
<path d="M111.57 210.976C111.57 210.976 111.496 186.638 116.328 179.11" stroke="#263238" stroke-linecap="round" stroke-linejoin="round"/>
<path d="M109.765 186.177C109.765 186.177 108.408 201.294 111.459 206.224" stroke="#263238" stroke-linecap="round" stroke-linejoin="round"/>
<path d="M99.8302 214.568C99.8302 214.568 89.2756 210.933 87.0897 215.44C84.9039 219.947 93.3832 215.95 93.3832 215.95" stroke="#263238" stroke-linecap="round" stroke-linejoin="round"/>
<path d="M106.179 230.348C106.179 230.348 95.8147 236.187 95.2805 239.527" stroke="#263238" stroke-linecap="round" stroke-linejoin="round"/>
<path d="M123.107 214.2C123.107 214.2 142.945 244.182 153.893 241.431" stroke="#263238" stroke-linecap="round" stroke-linejoin="round"/>
<path d="M136.658 256.253C136.658 256.253 121.105 267.655 118.852 266.691" stroke="#263238" stroke-linecap="round" stroke-linejoin="round"/>
<path opacity="0.2" d="M245.6 207.6C246.65 206.74 247.344 206.169 247.571 205.991C247.338 206.193 246.662 206.783 245.6 207.6Z" fill="black"/>
</svg>
