<svg width="80" height="68" viewBox="0 0 80 68" fill="none" xmlns="http://www.w3.org/2000/svg">
<path d="M72.3125 10.8672H59.8281L56.8539 2.53203C56.6484 1.96168 56.2719 1.46867 55.7757 1.12036C55.2795 0.772041 54.6879 0.585403 54.0816 0.585939H25.9184C24.6791 0.585939 23.5684 1.36621 23.1553 2.53203L20.1719 10.8672H7.6875C3.63008 10.8672 0.34375 14.1535 0.34375 18.2109V60.0703C0.34375 64.1277 3.63008 67.4141 7.6875 67.4141H72.3125C76.3699 67.4141 79.6562 64.1277 79.6562 60.0703V18.2109C79.6562 14.1535 76.3699 10.8672 72.3125 10.8672ZM40 52.7266C31.8852 52.7266 25.3125 46.1539 25.3125 38.0391C25.3125 29.9242 31.8852 23.3516 40 23.3516C48.1148 23.3516 54.6875 29.9242 54.6875 38.0391C54.6875 46.1539 48.1148 52.7266 40 52.7266ZM31.1875 38.0391C31.1875 40.3763 32.116 42.6178 33.7686 44.2704C35.4213 45.9231 37.6628 46.8516 40 46.8516C42.3372 46.8516 44.5787 45.9231 46.2314 44.2704C47.884 42.6178 48.8125 40.3763 48.8125 38.0391C48.8125 35.7018 47.884 33.4603 46.2314 31.8077C44.5787 30.155 42.3372 29.2266 40 29.2266C37.6628 29.2266 35.4213 30.155 33.7686 31.8077C32.116 33.4603 31.1875 35.7018 31.1875 38.0391Z" fill="#C9C9C9"/>
</svg>
