<svg width="15" height="15" viewBox="0 0 15 15" fill="none" xmlns="http://www.w3.org/2000/svg">
<path d="M8.59861 7.50012L7 8.56586V6.43438L8.59861 7.50012Z" fill="#9C9C9C"/>
<path fill-rule="evenodd" clip-rule="evenodd" d="M1.5061 1.77318C5.45719 0.926518 9.54281 0.926518 13.4939 1.77318C14.3724 1.96143 15 2.73778 15 3.63621V11.364C15 12.2625 14.3724 13.0388 13.4939 13.2271C9.54281 14.0737 5.45719 14.0737 1.5061 13.2271C0.627614 13.0388 0 12.2625 0 11.364V3.63621C0 2.73778 0.627614 1.96143 1.5061 1.77318ZM6.77735 5.0841C6.62392 4.98181 6.42665 4.97228 6.26407 5.05929C6.10149 5.1463 6 5.31573 6 5.50012V9.50012C6 9.68452 6.10149 9.85395 6.26407 9.94096C6.42665 10.028 6.62392 10.0184 6.77735 9.91615L9.77735 7.91615C9.91645 7.82341 10 7.6673 10 7.50012C10 7.33295 9.91645 7.17683 9.77735 7.0841L6.77735 5.0841Z" fill="#9C9C9C"/>
</svg>
