<svg width="244" height="244" viewBox="0 0 244 244" fill="none" xmlns="http://www.w3.org/2000/svg">
<path d="M132.326 184.83H81.501V224.031H132.326V184.83Z" fill="#EBEBEB"/>
<path d="M119.594 223.758C119.526 223.758 119.467 215.018 119.467 204.238C119.467 193.458 119.526 184.718 119.594 184.718C119.662 184.718 119.721 193.458 119.721 204.238C119.721 215.018 119.662 223.758 119.594 223.758Z" fill="#E0E0E0"/>
<path d="M128.017 215.11H124.123V219.517H128.017V215.11Z" fill="#FAFAFA"/>
<path d="M102.783 184.933H97.0098V193.297H102.783V184.933Z" fill="#E0E0E0"/>
<path d="M102.783 215.55H97.0098V223.914H102.783V215.55Z" fill="#E0E0E0"/>
<path d="M224.553 175.001H160.464V224.431H224.553V175.001Z" fill="#EBEBEB"/>
<path d="M208.493 224.08C208.425 224.08 208.366 213.065 208.366 199.475C208.366 185.884 208.425 174.87 208.493 174.87C208.561 174.87 208.62 185.884 208.62 199.475C208.62 213.065 208.566 224.08 208.493 224.08Z" fill="#E0E0E0"/>
<path d="M219.117 213.178H214.203V218.731H219.117V213.178Z" fill="#FAFAFA"/>
<path d="M187.295 175.128H180.014V185.674H187.295V175.128Z" fill="#E0E0E0"/>
<path d="M187.295 213.734H180.014V224.28H187.295V213.734Z" fill="#E0E0E0"/>
<path d="M39.7525 176.456C42.3487 175.119 45.4036 174.943 48.2828 175.421C49.8297 175.675 51.4401 176.139 52.4942 177.3C53.5483 178.462 53.7435 180.506 52.5381 181.507C51.8159 182.102 50.8155 182.19 49.8785 182.18C47.624 182.151 45.1254 181.756 43.3247 183.112C42.295 183.888 41.6118 185.172 40.3967 185.552C39.1816 185.933 37.8396 185.216 37.2052 184.132C36.6182 183.002 36.4889 181.69 36.844 180.467C36.9877 179.62 37.3249 178.817 37.8293 178.122C38.3338 177.426 38.9919 176.856 39.7525 176.456Z" fill="#EBEBEB"/>
<path d="M33.8087 164.983C35.3947 167.247 38.4789 166.501 39.9087 165.115C41.3385 163.729 41.9437 161.728 42.4902 159.82C43.7493 155.452 45.0132 150.87 44.0811 146.424C43.8567 145.076 43.2639 143.816 42.3682 142.784C41.9148 142.277 41.3367 141.897 40.6913 141.682C40.0459 141.467 39.3556 141.425 38.6887 141.559C37.132 141.969 36.1657 143.511 35.4679 144.941C33.4104 149.215 32.3334 153.895 32.3154 158.639C32.3154 160.85 32.5643 163.163 33.8087 164.983Z" fill="#EBEBEB"/>
<path d="M29.4557 168.233C31.1784 166.188 31.5053 163.211 30.7392 160.649C29.973 158.087 28.2406 155.911 26.2447 154.13C23.8972 152.042 21.1656 150.43 18.2024 149.386C17.054 148.922 15.8187 148.713 14.5815 148.771C13.9643 148.807 13.3651 148.992 12.836 149.312C12.307 149.632 11.8642 150.076 11.5461 150.606C10.697 152.222 11.512 154.178 12.3904 155.779C13.9372 158.595 15.7027 161.286 17.6705 163.826C19.2565 165.866 21.0865 167.881 23.4826 168.804C25.8787 169.726 28.4065 169.619 29.6851 167.945" fill="#EBEBEB"/>
<path d="M33.7013 199.153C33.786 198.817 33.8351 198.474 33.8477 198.128C33.9209 197.376 34.0087 196.435 34.121 195.317C34.2609 193.934 34.471 192.56 34.7505 191.198C35.1172 189.534 35.6182 187.902 36.2487 186.318C36.867 184.745 37.7031 183.267 38.7326 181.926C39.5742 180.836 40.6455 179.945 41.8704 179.316C42.7035 178.905 43.5961 178.628 44.5154 178.496C44.8614 178.482 45.205 178.432 45.5402 178.344C45.1947 178.306 44.8462 178.306 44.5007 178.344C43.5461 178.416 42.6122 178.659 41.7435 179.062C40.45 179.672 39.3158 180.574 38.43 181.697C37.3526 183.055 36.4841 184.567 35.8534 186.182C35.2237 187.784 34.7338 189.438 34.3894 191.125C34.1239 192.504 33.9398 193.897 33.8379 195.298C33.7501 196.493 33.7159 197.459 33.7013 198.128C33.6653 198.469 33.6653 198.812 33.7013 199.153Z" fill="#E0E0E0"/>
<path d="M33.8964 196.996C33.9253 196.835 33.9352 196.671 33.9256 196.508C33.9256 196.147 33.9256 195.693 33.9256 195.141C33.9256 193.955 33.9256 192.238 33.9842 190.12C34.0916 185.884 34.4722 181.336 35.1603 174.899C35.8288 168.853 36.7219 161.821 37.6686 157.248C37.8687 156.209 38.0736 155.272 38.2688 154.452C38.464 153.632 38.6056 152.92 38.7568 152.349C38.9081 151.778 38.9911 151.373 39.0789 151.021C39.1267 150.863 39.1545 150.699 39.1619 150.533C39.0884 150.675 39.0326 150.826 38.996 150.982C38.8886 151.329 38.7568 151.758 38.5958 152.29C38.4348 152.822 38.2396 153.564 38.0346 154.379C37.8296 155.194 37.5954 156.131 37.3758 157.17C36.2035 162.578 35.3222 168.045 34.7357 173.547C34.033 179.989 33.7158 185.855 33.6865 190.1C33.6865 192.223 33.6865 193.946 33.7597 195.132C33.7939 195.683 33.8232 196.137 33.8427 196.493C33.8403 196.662 33.8583 196.831 33.8964 196.996Z" fill="#E0E0E0"/>
<path d="M33.9258 185.684C33.963 185.208 33.963 184.73 33.9258 184.254C33.8721 183.337 33.7453 182.014 33.4866 180.389C33.1674 178.489 32.7406 176.609 32.2081 174.758C31.5926 172.479 30.8047 170.251 29.851 168.092C28.2183 164.113 25.8751 160.465 22.9361 157.326C22.4261 156.787 21.8817 156.282 21.3061 155.813C21.0573 155.599 20.8181 155.389 20.6132 155.223L20.0081 154.789C19.6283 154.499 19.2251 154.241 18.8027 154.018C18.7344 154.11 20.5058 155.155 22.7409 157.531C25.5838 160.7 27.8647 164.331 29.485 168.267C30.4222 170.412 31.213 172.618 31.8518 174.87C32.3884 176.704 32.8331 178.564 33.1841 180.443C33.4769 182.048 33.6721 183.371 33.7501 184.269C33.771 184.744 33.8297 185.218 33.9258 185.684Z" fill="#E0E0E0"/>
<path d="M22.2334 203.916L23.3656 219.449H43.3199L44.452 203.916H22.2334Z" fill="#EBEBEB"/>
<path d="M46.8285 197.796H20.3057V203.915H46.8285V197.796Z" fill="#EBEBEB"/>
<path d="M20.3057 218.853V220.546H21.5549H46.3941V218.853H20.3057Z" fill="#E0E0E0"/>
<path d="M22.7752 223.348L21.5552 220.361H45.4428L44.0178 223.348H22.7752Z" fill="#E0E0E0"/>
<path d="M44.0809 208.991C44.0559 209.043 44.0248 209.092 43.9881 209.137C43.9101 209.24 43.8076 209.372 43.6905 209.533L42.529 210.997L42.4753 211.065L42.4265 210.997L39.5717 207.049H39.7328L36.9219 211.026L36.8341 211.153L36.7365 211.036L33.4034 207.068H33.5937L33.4132 207.302L30.4315 211.036L30.329 211.163L30.2412 211.031L27.4254 207.054H27.5913L24.1265 210.997L24.068 211.07L24.0192 210.987L22.9358 209.191C22.8187 208.996 22.7309 208.835 22.6577 208.703C22.6209 208.649 22.5913 208.589 22.5698 208.527C22.6155 208.574 22.6549 208.627 22.6869 208.684L22.9944 209.147L24.1314 210.938H24.0241L27.4401 206.946L27.523 206.844L27.6011 206.951L30.4413 210.914H30.2558L33.2277 207.171C33.2912 207.093 33.3546 207.015 33.4083 206.941L33.5059 206.819L33.6035 206.936L36.9268 210.914H36.7413L39.5815 206.956L39.6645 206.839L39.7425 206.956C40.8698 208.562 41.8263 209.923 42.5388 210.948H42.4363L43.6465 209.484C43.7783 209.333 43.8857 209.211 43.9686 209.108C44.0031 209.066 44.0406 209.027 44.0809 208.991Z" fill="#F5F5F5"/>
<path d="M44.7303 203.813C44.7303 203.881 39.7283 203.94 33.5649 203.94C27.4014 203.94 22.3994 203.881 22.3994 203.813C22.3994 203.745 27.3965 203.691 33.5649 203.691C39.7332 203.691 44.7303 203.745 44.7303 203.813Z" fill="#F5F5F5"/>
<path d="M184.67 27.7191L180.581 27.7412L180.691 48.0905L184.78 48.0684L184.67 27.7191Z" fill="#E0E0E0"/>
<path d="M155.742 27.7733L145.153 27.8306L145.214 39.0642L155.803 39.0069L155.742 27.7733Z" fill="#EBEBEB"/>
<path d="M166.282 27.7161L155.693 27.7734L155.754 39.007L166.343 38.9497L166.282 27.7161Z" fill="#F5F5F5"/>
<path d="M145.165 30.939C152.205 30.9976 159.249 30.9651 166.296 30.8414C166.325 30.8414 166.354 30.8296 166.375 30.8086C166.396 30.7875 166.408 30.759 166.408 30.7292C166.408 30.6994 166.396 30.6709 166.375 30.6498C166.354 30.6288 166.325 30.617 166.296 30.617C159.259 30.5779 152.202 30.617 145.165 30.7487C145.144 30.7536 145.124 30.7657 145.111 30.783C145.097 30.8003 145.089 30.8218 145.089 30.8439C145.089 30.866 145.097 30.8875 145.111 30.9047C145.124 30.922 145.144 30.9341 145.165 30.939Z" fill="#E0E0E0"/>
<path d="M157.793 38.8197L138.551 38.9238L138.601 48.0786L157.842 47.9745L157.793 38.8197Z" fill="#EBEBEB"/>
<path d="M176.941 38.7162L157.7 38.8203L157.749 47.9751L176.991 47.871L176.941 38.7162Z" fill="#F5F5F5"/>
<path d="M138.563 41.48C151.344 41.6215 164.168 41.48 176.954 41.2897C176.984 41.2897 177.012 41.2778 177.033 41.2568C177.054 41.2358 177.066 41.2072 177.066 41.1774C177.066 41.1477 177.054 41.1191 177.033 41.0981C177.012 41.077 176.984 41.0652 176.954 41.0652C164.173 40.9969 151.344 41.0018 138.563 41.2848C138.537 41.2848 138.512 41.2951 138.494 41.3134C138.476 41.3317 138.465 41.3565 138.465 41.3824C138.465 41.4083 138.476 41.4331 138.494 41.4514C138.512 41.4697 138.537 41.48 138.563 41.48Z" fill="#E0E0E0"/>
<path d="M205.912 48.0874H131.365V51.3668H205.912V48.0874Z" fill="#E0E0E0"/>
<path d="M146.595 49.6636H143.57V60.8534H146.595V49.6636Z" fill="#E0E0E0"/>
<path d="M191.769 49.6636H188.744V60.8534H191.769V49.6636Z" fill="#E0E0E0"/>
<path d="M188.66 20.1283L184.57 20.1504L184.722 48.1368L188.811 48.1147L188.66 20.1283Z" fill="#EBEBEB"/>
<path d="M195.047 25.3396L188.693 25.374L188.816 48.0559L195.169 48.0215L195.047 25.3396Z" fill="#F5F5F5"/>
<path d="M195.005 29.7193C192.893 29.8685 190.773 29.8685 188.661 29.7193C190.773 29.5766 192.892 29.5766 195.005 29.7193Z" fill="#E0E0E0"/>
<path d="M195.005 28.7921C193.949 28.8989 192.888 28.9347 191.828 28.8994C190.768 28.9345 189.706 28.8987 188.651 28.7921C190.763 28.6429 192.883 28.6429 194.995 28.7921H195.005Z" fill="#E0E0E0"/>
<path d="M195.005 44.6178C192.893 44.767 190.773 44.767 188.661 44.6178C190.773 44.4751 192.892 44.4751 195.005 44.6178Z" fill="#E0E0E0"/>
<path d="M195.005 43.6661C192.892 43.8088 190.773 43.8088 188.661 43.6661C190.773 43.5169 192.893 43.5169 195.005 43.6661Z" fill="#E0E0E0"/>
<path d="M191.931 41.5874C191.872 41.5874 191.823 39.2986 191.823 36.478C191.823 33.6574 191.872 31.3638 191.931 31.3638C191.989 31.3638 192.043 33.6525 192.043 36.478C192.043 39.3035 191.994 41.5874 191.931 41.5874Z" fill="#E0E0E0"/>
<path d="M201.993 30.9194H195.078V48.0385H201.993V30.9194Z" fill="#EBEBEB"/>
<path d="M186.553 26.0934C187.202 26.0934 187.729 25.5668 187.729 24.9173C187.729 24.2678 187.202 23.7412 186.553 23.7412C185.903 23.7412 185.376 24.2678 185.376 24.9173C185.376 25.5668 185.903 26.0934 186.553 26.0934Z" fill="#E0E0E0"/>
<path d="M186.919 28.1528H186.191V44.8034H186.919V28.1528Z" fill="#E0E0E0"/>
<path d="M226.754 224.163C226.754 224.236 179.848 224.29 122.005 224.29C64.1624 224.29 17.2461 224.236 17.2461 224.163C17.2461 224.09 64.1429 224.036 122.005 224.036C179.867 224.036 226.754 224.095 226.754 224.163Z" fill="#263238"/>
<path d="M211.68 211.392C211.702 211.321 211.732 211.252 211.768 211.187C211.836 211.041 211.929 210.845 212.041 210.596C212.38 209.834 212.653 209.044 212.856 208.235C213.393 206.136 213.583 202.93 212.787 199.124C212.355 197.048 211.79 195.002 211.094 192.999C210.382 190.828 209.547 188.524 208.869 186.031C208.103 183.43 207.733 180.729 207.771 178.018C207.873 175.182 208.713 172.357 209.635 169.536C210.557 166.716 211.509 163.968 211.792 161.186C212.107 158.519 211.57 155.82 210.26 153.476C209.04 151.226 207.502 149.299 206.356 147.308C205.282 145.458 204.491 143.458 204.008 141.374C203.316 138.357 203.264 135.228 203.857 132.19C204.073 131.078 204.4 129.991 204.833 128.944C204.82 129.018 204.8 129.089 204.775 129.159L204.579 129.779C204.413 130.325 204.194 131.145 203.984 132.219C203.438 135.243 203.52 138.348 204.223 141.34C204.713 143.398 205.507 145.372 206.58 147.196C207.727 149.148 209.269 151.1 210.518 153.359C211.861 155.751 212.413 158.506 212.094 161.23C211.807 164.051 210.85 166.828 209.928 169.644C209.005 172.459 208.176 175.256 208.073 178.042C208.03 180.726 208.392 183.401 209.147 185.977C209.816 188.456 210.635 190.759 211.343 192.941C212.032 194.954 212.586 197.012 213.002 199.099C213.778 202.935 213.558 206.175 213.002 208.278C212.784 209.089 212.492 209.879 212.129 210.636L211.826 211.216C211.784 211.28 211.735 211.339 211.68 211.392Z" fill="#263238"/>
<path d="M207.917 149.275C207.917 149.275 205.585 141.803 209.772 137.431C209.804 137.396 209.846 137.37 209.892 137.357C209.938 137.344 209.987 137.344 210.033 137.358C210.079 137.371 210.12 137.396 210.153 137.432C210.185 137.467 210.207 137.511 210.216 137.558C210.44 138.792 210.719 142.55 207.917 149.275Z" fill="#FCAE4F"/>
<path d="M209.318 139.919C209.311 140.382 209.258 140.843 209.162 141.296C209.006 142.247 208.825 143.36 208.63 144.59C208.435 145.819 208.254 146.937 208.103 147.884C208.06 148.345 207.979 148.802 207.859 149.25C207.813 148.789 207.823 148.323 207.888 147.864C207.966 147.01 208.117 145.839 208.327 144.551C208.537 143.262 208.767 142.111 208.947 141.266C209.018 140.805 209.143 140.353 209.318 139.919Z" fill="#263238"/>
<path d="M210.66 166.896C210.66 166.896 212.09 159.2 217.838 157.297C217.883 157.281 217.932 157.278 217.979 157.289C218.026 157.299 218.069 157.322 218.103 157.356C218.138 157.389 218.162 157.432 218.174 157.478C218.186 157.525 218.184 157.573 218.17 157.619C217.789 158.805 216.281 162.255 210.66 166.896Z" fill="#FCAE4F"/>
<path d="M216.272 159.273C216.049 159.68 215.788 160.064 215.491 160.42L213.476 163.08L211.475 165.749C211.223 166.136 210.937 166.501 210.621 166.837C210.799 166.408 211.029 166.002 211.304 165.627C211.792 164.91 212.456 163.944 213.256 162.904C214.057 161.865 214.784 160.952 215.335 160.288C215.609 159.917 215.923 159.576 216.272 159.273Z" fill="#263238"/>
<path d="M209.108 186.187C209.108 186.187 208.239 178.408 213.188 174.919C213.226 174.889 213.272 174.871 213.32 174.866C213.368 174.861 213.417 174.871 213.46 174.893C213.503 174.915 213.539 174.949 213.563 174.99C213.587 175.032 213.599 175.08 213.598 175.128C213.583 176.383 213.139 180.121 209.108 186.187Z" fill="#FCAE4F"/>
<path d="M212.28 177.271C212.189 177.725 212.05 178.169 211.865 178.593L210.713 181.726C210.284 182.898 209.898 183.957 209.571 184.859C209.446 185.304 209.283 185.736 209.083 186.153C209.129 185.69 209.23 185.234 209.386 184.796C209.625 183.976 209.996 182.844 210.45 181.624C210.904 180.404 211.348 179.306 211.685 178.52C211.84 178.085 212.039 177.666 212.28 177.271Z" fill="#263238"/>
<path d="M213.437 205.599C213.437 205.599 212.851 197.791 217.916 194.483C217.956 194.455 218.003 194.44 218.051 194.437C218.099 194.435 218.146 194.446 218.189 194.469C218.231 194.493 218.265 194.527 218.289 194.569C218.312 194.611 218.324 194.659 218.322 194.707C218.263 195.961 217.687 199.685 213.437 205.599Z" fill="#FCAE4F"/>
<path d="M216.911 196.806C216.802 197.256 216.646 197.695 216.447 198.114C216.086 199.002 215.657 200.065 215.184 201.203C214.71 202.34 214.295 203.399 213.934 204.292C213.79 204.732 213.605 205.158 213.383 205.565C213.448 205.104 213.567 204.652 213.739 204.218C214.007 203.408 214.417 202.296 214.915 201.09C215.413 199.885 215.891 198.802 216.257 198.031C216.431 197.6 216.65 197.19 216.911 196.806Z" fill="#263238"/>
<path d="M204.56 142.711C204.56 142.711 197.64 139.08 197.489 133.034C197.488 132.986 197.501 132.94 197.525 132.899C197.549 132.858 197.583 132.824 197.625 132.801C197.666 132.778 197.713 132.767 197.76 132.768C197.808 132.77 197.854 132.784 197.894 132.809C198.923 133.522 201.783 135.981 204.56 142.711Z" fill="#FCAE4F"/>
<path d="M198.928 135.113C199.253 135.445 199.542 135.809 199.792 136.201C200.358 136.977 201.017 137.894 201.744 138.905L203.696 141.598C203.993 141.953 204.258 142.333 204.487 142.735C204.13 142.438 203.81 142.099 203.535 141.725C202.983 141.071 202.261 140.134 201.5 139.075C200.739 138.016 200.07 137.036 199.611 136.318C199.342 135.941 199.113 135.537 198.928 135.113Z" fill="#263238"/>
<path d="M212.012 158.751C212.012 158.751 204.867 155.555 204.365 149.518C204.361 149.471 204.37 149.423 204.391 149.381C204.412 149.338 204.445 149.302 204.485 149.277C204.526 149.252 204.572 149.238 204.62 149.238C204.667 149.237 204.714 149.25 204.755 149.274C205.824 149.923 208.825 152.198 212.012 158.751Z" fill="#FCAE4F"/>
<path d="M205.936 151.509C206.28 151.819 206.591 152.164 206.863 152.539L208.981 155.12L211.104 157.692C211.422 158.029 211.709 158.393 211.963 158.78C211.588 158.504 211.248 158.185 210.948 157.829C210.362 157.204 209.581 156.316 208.757 155.306C207.932 154.296 207.21 153.354 206.702 152.666C206.405 152.31 206.148 151.922 205.936 151.509Z" fill="#263238"/>
<path d="M207.888 176.656C207.888 176.656 203.008 170.556 205.287 164.944C205.305 164.9 205.335 164.862 205.373 164.833C205.412 164.805 205.457 164.788 205.504 164.784C205.552 164.78 205.599 164.789 205.642 164.811C205.685 164.832 205.72 164.864 205.746 164.905C206.424 165.964 208.049 169.36 207.888 176.656Z" fill="#FCAE4F"/>
<path d="M205.78 167.423C205.947 167.857 206.068 168.307 206.141 168.765C206.346 169.702 206.585 170.805 206.848 172.025C207.112 173.245 207.361 174.343 207.566 175.28C207.696 175.725 207.786 176.181 207.834 176.642C207.62 176.227 207.456 175.788 207.346 175.334C207.107 174.509 206.814 173.382 206.541 172.084C206.268 170.786 206.053 169.644 205.916 168.804C205.82 168.35 205.775 167.887 205.78 167.423Z" fill="#263238"/>
<path d="M212.768 197.694C212.768 197.694 205.677 194.38 205.277 188.339C205.272 188.291 205.281 188.242 205.303 188.199C205.324 188.156 205.357 188.119 205.399 188.094C205.44 188.068 205.487 188.055 205.536 188.055C205.584 188.055 205.631 188.069 205.672 188.095C206.722 188.764 209.684 191.091 212.768 197.694Z" fill="#FCAE4F"/>
<path d="M206.8 190.349C207.135 190.669 207.439 191.02 207.707 191.398L209.781 194.009L211.86 196.62C212.173 196.961 212.454 197.331 212.7 197.723C212.336 197.438 212.009 197.11 211.724 196.747C211.143 196.112 210.382 195.21 209.572 194.185C208.762 193.16 208.059 192.208 207.561 191.511C207.263 191.154 207.008 190.765 206.8 190.349Z" fill="#263238"/>
<path d="M226.876 166.93C226.876 166.93 226.876 166.989 226.876 167.101C226.876 167.213 226.876 167.399 226.876 167.589C226.876 168.077 226.827 168.697 226.793 169.487C226.705 171.156 226.573 173.484 226.422 176.266C225.934 179.096 224.47 182.234 222.518 185.284C221.098 187.529 219.59 189.568 218.321 191.467C217.163 193.133 216.123 194.878 215.208 196.688C214.602 197.912 214.112 199.19 213.744 200.505C213.622 200.968 213.524 201.334 213.471 201.583C213.448 201.713 213.413 201.84 213.368 201.964C213.37 201.832 213.386 201.701 213.417 201.573C213.451 201.32 213.524 200.949 213.637 200.475C213.965 199.138 214.431 197.837 215.027 196.596C215.934 194.771 216.973 193.014 218.136 191.34C219.414 189.427 220.893 187.382 222.308 185.152C224.236 182.117 225.671 179.028 226.212 176.241C226.407 173.464 226.569 171.142 226.7 169.473C226.764 168.682 226.817 168.053 226.856 167.579C226.856 167.384 226.891 167.218 226.905 167.091C226.889 167.039 226.879 166.985 226.876 166.93Z" fill="#263238"/>
<path d="M222.655 184.723C222.655 184.723 225.656 177.5 221.884 172.762C221.855 172.724 221.816 172.695 221.771 172.678C221.726 172.661 221.677 172.657 221.63 172.666C221.583 172.675 221.539 172.697 221.504 172.729C221.469 172.762 221.443 172.804 221.43 172.85C221.093 174.06 220.474 177.774 222.655 184.723Z" fill="#FCAE4F"/>
<path d="M222.109 175.285C222.238 175.73 222.318 176.188 222.348 176.651C222.455 177.5 222.572 178.676 222.665 179.979C222.758 181.282 222.802 182.463 222.802 183.322C222.831 183.786 222.803 184.251 222.719 184.708C222.634 184.252 222.593 183.79 222.597 183.327C222.533 182.351 222.455 181.243 222.372 179.999C222.289 178.754 222.211 177.627 222.143 176.671C222.086 176.211 222.074 175.747 222.109 175.285Z" fill="#263238"/>
<g opacity="0.3">
<path opacity="0.3" d="M222.655 184.723C222.655 184.723 225.656 177.5 221.884 172.762C221.855 172.724 221.816 172.695 221.771 172.678C221.726 172.661 221.677 172.657 221.63 172.666C221.583 172.675 221.539 172.697 221.504 172.729C221.469 172.762 221.443 172.804 221.43 172.85C221.093 174.06 220.474 177.774 222.655 184.723Z" fill="black"/>
</g>
<path d="M213.359 202.14C213.359 202.14 215.765 194.693 211.617 190.281C211.584 190.246 211.543 190.221 211.497 190.207C211.452 190.194 211.403 190.194 211.357 190.207C211.311 190.219 211.27 190.244 211.237 190.279C211.204 190.314 211.182 190.357 211.172 190.403C210.938 191.633 210.621 195.391 213.359 202.14Z" fill="#FCAE4F"/>
<path d="M212.046 192.76C212.215 193.194 212.333 193.646 212.397 194.107C212.573 194.942 212.783 196.108 212.983 197.396C213.183 198.685 213.32 199.861 213.393 200.715C213.456 201.176 213.464 201.643 213.417 202.105C213.301 201.657 213.223 201.2 213.183 200.739C213.041 199.787 212.876 198.675 212.695 197.44C212.514 196.206 212.339 195.093 212.207 194.141C212.108 193.687 212.054 193.225 212.046 192.76Z" fill="#263238"/>
<g opacity="0.3">
<path opacity="0.3" d="M213.359 202.14C213.359 202.14 215.765 194.693 211.617 190.281C211.584 190.246 211.543 190.221 211.497 190.207C211.452 190.194 211.403 190.194 211.357 190.207C211.311 190.219 211.27 190.244 211.237 190.279C211.204 190.314 211.182 190.357 211.172 190.403C210.938 191.633 210.621 195.391 213.359 202.14Z" fill="black"/>
</g>
<path d="M226.481 175.895C226.481 175.895 232.888 171.405 232.244 165.383C232.239 165.336 232.221 165.291 232.192 165.253C232.163 165.215 232.125 165.186 232.08 165.169C232.036 165.152 231.988 165.148 231.941 165.156C231.894 165.165 231.85 165.186 231.815 165.218C230.883 166.057 228.384 168.848 226.481 175.895Z" fill="#FCAE4F"/>
<g opacity="0.3">
<path opacity="0.3" d="M226.481 175.895C226.481 175.895 232.888 171.405 232.244 165.383C232.239 165.336 232.221 165.291 232.192 165.253C232.163 165.215 232.125 165.186 232.08 165.169C232.036 165.152 231.988 165.148 231.941 165.156C231.894 165.165 231.85 165.186 231.815 165.218C230.883 166.057 228.384 168.848 226.481 175.895Z" fill="black"/>
</g>
<path d="M231.083 167.633C230.956 168.08 230.777 168.51 230.551 168.916C230.185 169.687 229.653 170.741 229.033 171.893C228.413 173.045 227.818 174.065 227.359 174.787C227.134 175.192 226.86 175.569 226.544 175.909C226.716 175.48 226.928 175.068 227.179 174.68C227.638 173.835 228.179 172.85 228.775 171.752L230.365 168.824C230.565 168.404 230.806 168.005 231.083 167.633Z" fill="#263238"/>
<path d="M215.945 194.756C215.945 194.756 223.675 193.551 225.744 187.861C225.761 187.816 225.765 187.768 225.756 187.722C225.747 187.675 225.726 187.632 225.694 187.596C225.662 187.561 225.622 187.535 225.576 187.522C225.531 187.508 225.482 187.507 225.436 187.519C224.231 187.88 220.737 189.271 215.945 194.756Z" fill="#FCAE4F"/>
<g opacity="0.3">
<path opacity="0.3" d="M215.945 194.756C215.945 194.756 223.675 193.551 225.744 187.861C225.761 187.816 225.765 187.768 225.756 187.722C225.747 187.675 225.726 187.632 225.694 187.596C225.662 187.561 225.622 187.535 225.576 187.522C225.531 187.508 225.482 187.507 225.436 187.519C224.231 187.88 220.737 189.271 215.945 194.756Z" fill="black"/>
</g>
<path d="M223.714 189.369C223.401 189.711 223.05 190.017 222.669 190.281C222.001 190.818 221.059 191.531 220 192.292C218.941 193.053 217.951 193.702 217.219 194.151C216.837 194.417 216.424 194.635 215.989 194.8C216.335 194.491 216.709 194.215 217.106 193.975L219.829 192.053L222.547 190.101C222.909 189.816 223.3 189.571 223.714 189.369Z" fill="#263238"/>
<path d="M208.567 208.986L206.312 224.163H220.366L218.546 208.986H208.567Z" fill="#455A64"/>
<path d="M219.112 213.686C219.112 213.769 216.575 213.832 213.446 213.832C210.318 213.832 207.776 213.769 207.776 213.686C209.662 213.541 211.555 213.492 213.446 213.539C215.336 213.492 217.227 213.541 219.112 213.686Z" fill="#263238"/>
<path d="M219.385 214.896C219.385 214.979 216.765 215.042 213.529 215.042C210.294 215.042 207.673 214.979 207.673 214.896C207.673 214.813 210.294 214.75 213.529 214.75C216.765 214.75 219.385 214.813 219.385 214.896Z" fill="#263238"/>
<path d="M164.734 61.7514C164.734 61.7514 164.603 61.7514 164.349 61.7514C163.978 61.7294 163.607 61.7294 163.236 61.7514C161.803 61.8353 160.395 62.1654 159.074 62.7274C156.979 63.6052 155.157 65.0252 153.793 66.8412C152.953 67.9751 152.328 69.2537 151.949 70.6135C151.095 73.8524 151.556 77.2977 153.232 80.1978C153.689 81.0007 154.247 81.742 154.891 82.4035C155.542 83.1044 156.3 83.6974 157.136 84.1603C157.995 84.6435 158.967 84.8878 159.952 84.8679C160.967 84.8557 161.941 84.4621 162.68 83.7651C163.037 83.3909 163.317 82.9501 163.504 82.4678C163.69 81.9856 163.78 81.4712 163.768 80.9542C163.761 79.88 163.42 78.8346 162.792 77.9627C161.528 76.1815 159.479 74.9859 157.297 74.3418C155.035 73.7065 152.647 73.6728 150.368 74.2442C149.204 74.5468 148.083 74.9927 147.03 75.5715C145.966 76.1717 145 76.9303 144.165 77.8212C143.965 78.0506 143.736 78.2604 143.555 78.5142L143.004 79.2559C142.668 79.7786 142.368 80.3231 142.106 80.8859C141.584 82.0283 141.227 83.2394 141.047 84.4824C140.693 86.9657 141.03 89.4986 142.023 91.8024C142.972 94.0535 144.624 95.9367 146.732 97.1704C147.754 97.7545 148.895 98.0998 150.07 98.1806C151.222 98.245 152.367 97.9701 153.364 97.39C154.354 96.8431 155.136 95.9856 155.589 94.95C156.017 93.9294 156.047 92.7853 155.672 91.7439C155.287 90.7391 154.656 89.8466 153.837 89.1477C153.043 88.4616 152.128 87.9303 151.139 87.5812C149.209 86.9728 147.144 86.9372 145.195 87.4787C143.371 87.973 141.695 88.9062 140.315 90.1969C139.057 91.4015 138.1 92.884 137.519 94.5255C136.502 97.3736 136.549 100.493 137.65 103.309C138.509 105.412 139.892 107.26 141.667 108.677C142.784 109.574 144.03 110.299 145.361 110.83C145.82 111 146.176 111.127 146.42 111.196L146.781 111.313C146.781 111.313 146.654 111.288 146.41 111.22C146.049 111.123 145.694 111.008 145.346 110.873C143.997 110.367 142.736 109.652 141.608 108.756C139.803 107.339 138.394 105.482 137.514 103.363C136.393 100.52 136.336 97.3682 137.353 94.4864C137.935 92.82 138.903 91.3151 140.178 90.0944C141.578 88.7778 143.279 87.823 145.131 87.3128C147.122 86.7575 149.231 86.7914 151.202 87.4104C152.221 87.7656 153.163 88.3104 153.979 89.0159C154.829 89.7377 155.484 90.6626 155.882 91.7048C156.283 92.7928 156.266 93.9912 155.833 95.0671C155.352 96.1435 154.535 97.0354 153.506 97.6096C152.472 98.2122 151.285 98.5004 150.09 98.4392C148.886 98.3553 147.718 97.9981 146.674 97.3949C144.517 96.144 142.824 94.2281 141.847 91.9342C140.833 89.5882 140.486 87.0082 140.842 84.4775C141.028 83.2093 141.393 81.9738 141.925 80.8078C142.193 80.2331 142.5 79.6772 142.843 79.1437L143.409 78.3873C143.589 78.1287 143.824 77.8993 144.029 77.6748C144.883 76.767 145.87 75.9937 146.957 75.3812C148.034 74.7913 149.182 74.3388 150.373 74.0343C152.695 73.4523 155.129 73.4877 157.434 74.1368C159.659 74.8005 161.743 76.0156 163.056 77.8603C163.715 78.7686 164.074 79.8608 164.08 80.9835C164.104 82.0882 163.688 83.1572 162.924 83.9554C162.143 84.6883 161.116 85.1011 160.045 85.1119C159.02 85.1352 158.008 84.8805 157.117 84.3751C156.26 83.9024 155.486 83.2943 154.823 82.5743C154.17 81.8979 153.604 81.1421 153.14 80.3247C151.433 77.3707 150.97 73.8602 151.851 70.5647C152.242 69.1892 152.882 67.8973 153.74 66.7534C155.128 64.9236 156.982 63.4996 159.108 62.6298C160.44 62.0787 161.859 61.7681 163.3 61.7123C163.673 61.6877 164.048 61.6877 164.422 61.7123L164.734 61.7514Z" fill="#263238"/>
<path d="M181.028 110.581H112.606V163.353H181.028V110.581Z" fill="#FCAE4F"/>
<path d="M112.606 110.581L125.245 122.371H192.506L181.028 110.581H112.606Z" fill="#FCAE4F"/>
<path d="M112.606 110.58L181.048 110.458H181.102L181.141 110.493L192.501 122.161L192.618 122.283L192.828 122.497H192.526L125.265 122.444H125.235L112.606 110.58L125.294 122.293H125.24L192.501 122.244L192.413 122.458L192.291 122.336L180.936 110.668L181.024 110.707L112.606 110.58Z" fill="#263238"/>
<path d="M133.161 134.917C132.79 134.93 132.44 135.089 132.185 135.358C131.93 135.627 131.79 135.986 131.797 136.357C131.804 136.728 131.956 137.081 132.22 137.341C132.485 137.601 132.841 137.746 133.212 137.746C133.583 137.746 133.939 137.601 134.204 137.341C134.468 137.081 134.62 136.728 134.627 136.357C134.634 135.986 134.495 135.627 134.24 135.358C133.985 135.089 133.634 134.93 133.263 134.917" fill="#263238"/>
<path d="M149.328 134.917C148.959 134.931 148.61 135.089 148.357 135.358C148.103 135.626 147.965 135.984 147.972 136.353C147.979 136.722 148.131 137.074 148.394 137.333C148.658 137.592 149.013 137.737 149.382 137.737C149.751 137.737 150.106 137.592 150.37 137.333C150.633 137.074 150.785 136.722 150.792 136.353C150.799 135.984 150.661 135.626 150.407 135.358C150.154 135.089 149.805 134.931 149.436 134.917" fill="#263238"/>
<path d="M149.421 147.547C149.139 146.469 148.68 145.445 148.064 144.516C147.379 143.523 146.499 142.68 145.478 142.037C144.246 141.22 142.809 140.765 141.331 140.724C139.853 140.684 138.393 141.059 137.118 141.808C136.065 142.396 135.141 143.189 134.4 144.141C133.733 145.035 133.22 146.034 132.882 147.098C132.886 147.019 132.899 146.94 132.921 146.864C132.968 146.644 133.028 146.427 133.102 146.215C133.369 145.431 133.76 144.694 134.258 144.033C134.994 143.037 135.93 142.206 137.006 141.593C138.314 140.813 139.817 140.42 141.339 140.461C142.862 140.503 144.341 140.977 145.605 141.827C146.643 142.495 147.531 143.373 148.21 144.404C148.674 145.092 149.025 145.85 149.25 146.649C149.31 146.866 149.357 147.086 149.391 147.308C149.408 147.386 149.418 147.466 149.421 147.547Z" fill="#263238"/>
<path opacity="0.5" d="M112.762 111.162L124.865 126.504H181.029V122.371H125.245L112.762 111.162Z" fill="black"/>
<path d="M167.536 163.236C167.467 163.236 167.409 154.056 167.409 142.74C167.409 131.423 167.467 122.244 167.536 122.244C167.604 122.244 167.667 131.418 167.667 142.74C167.667 154.061 167.609 163.236 167.536 163.236Z" fill="#263238"/>
<path d="M178.281 151.27H172.25V158.087H178.281V151.27Z" fill="#F5F5F5"/>
<path d="M112.606 110.581L98.5615 122.371H112.606V110.581Z" fill="#FCAE4F"/>
<g opacity="0.4">
<path opacity="0.4" d="M112.606 110.581L98.5615 122.371H112.606V110.581Z" fill="black"/>
</g>
<path d="M183.049 163.353H104.378V224.031H183.049V163.353Z" fill="#FCAE4F"/>
<path opacity="0.3" d="M183.049 163.353H104.378V224.031H183.049V163.353Z" fill="black"/>
<path d="M163.339 223.601C163.27 223.601 163.212 210.079 163.212 193.399C163.212 176.719 163.27 163.192 163.339 163.192C163.407 163.192 163.466 176.714 163.466 193.399C163.466 210.084 163.407 223.601 163.339 223.601Z" fill="#263238"/>
<path d="M176.378 210.221H170.346V217.038H176.378V210.221Z" fill="#F5F5F5"/>
<path d="M137.314 163.514H128.378V176.461H137.314V163.514Z" fill="#263238"/>
<path d="M137.314 210.904H128.378V223.85H137.314V210.904Z" fill="#263238"/>
<path d="M182.366 163.353H182.161H181.57L179.301 163.377L170.942 163.416L143.374 163.48L115.798 163.446L107.443 163.407L105.174 163.382H104.578H104.378H104.578H105.174L107.443 163.358L115.798 163.319L143.374 163.28L170.942 163.319L179.301 163.358L181.57 163.382H182.161L182.366 163.353Z" fill="#263238"/>
</svg>
