<svg width="16" height="16" viewBox="0 0 16 16" fill="none" xmlns="http://www.w3.org/2000/svg">
<g clip-path="url(#clip0_848_286)">
<path fill-rule="evenodd" clip-rule="evenodd" d="M8.00008 0.666992C3.95008 0.666992 0.666748 3.95033 0.666748 8.00032C0.666748 12.0503 3.95008 15.3337 8.00008 15.3337C12.0501 15.3337 15.3334 12.0503 15.3334 8.00032C15.3334 3.95033 12.0501 0.666992 8.00008 0.666992ZM11.1787 6.76032C11.2373 6.69342 11.2818 6.61548 11.3098 6.5311C11.3378 6.44672 11.3486 6.3576 11.3416 6.26898C11.3346 6.18036 11.31 6.09403 11.2691 6.01508C11.2283 5.93612 11.1721 5.86613 11.1038 5.80922C11.0355 5.75231 10.9565 5.70963 10.8715 5.6837C10.7865 5.65777 10.6971 5.6491 10.6087 5.65821C10.5202 5.66732 10.4345 5.69402 10.3566 5.73675C10.2786 5.77947 10.21 5.83735 10.1547 5.90699L7.28808 9.34632L5.80475 7.86232C5.67901 7.74089 5.51061 7.67369 5.33581 7.67521C5.16102 7.67673 4.99381 7.74684 4.8702 7.87045C4.7466 7.99405 4.67648 8.16126 4.67496 8.33606C4.67345 8.51086 4.74064 8.67926 4.86208 8.80499L6.86208 10.805C6.92759 10.8705 7.00601 10.9216 7.09236 10.955C7.17871 10.9885 7.27108 11.0036 7.36359 10.9994C7.45611 10.9952 7.54673 10.9718 7.62969 10.9306C7.71265 10.8895 7.78611 10.8315 7.84541 10.7603L11.1787 6.76032Z" fill="#1CC14A"/>
<g clip-path="url(#clip1_848_286)">
<path fill-rule="evenodd" clip-rule="evenodd" d="M8.00008 0.666992C3.95008 0.666992 0.666748 3.95033 0.666748 8.00032C0.666748 12.0503 3.95008 15.3337 8.00008 15.3337C12.0501 15.3337 15.3334 12.0503 15.3334 8.00032C15.3334 3.95033 12.0501 0.666992 8.00008 0.666992ZM11.1787 6.76032C11.2373 6.69342 11.2818 6.61548 11.3098 6.5311C11.3378 6.44672 11.3486 6.3576 11.3416 6.26898C11.3346 6.18036 11.31 6.09403 11.2691 6.01508C11.2283 5.93612 11.1721 5.86613 11.1038 5.80922C11.0355 5.75231 10.9565 5.70963 10.8715 5.6837C10.7865 5.65777 10.6971 5.6491 10.6087 5.65821C10.5202 5.66732 10.4345 5.69402 10.3566 5.73675C10.2786 5.77947 10.21 5.83735 10.1547 5.90699L7.28808 9.34632L5.80475 7.86232C5.67901 7.74089 5.51061 7.67369 5.33581 7.67521C5.16102 7.67673 4.99381 7.74684 4.8702 7.87045C4.7466 7.99405 4.67648 8.16126 4.67496 8.33606C4.67345 8.51086 4.74064 8.67926 4.86208 8.80499L6.86208 10.805C6.92759 10.8705 7.00601 10.9216 7.09236 10.955C7.17871 10.9885 7.27108 11.0036 7.36359 10.9994C7.45611 10.9952 7.54673 10.9718 7.62969 10.9306C7.71265 10.8895 7.78611 10.8315 7.84541 10.7603L11.1787 6.76032Z" fill="#2BD5CA"/>
</g>
</g>
<defs>
<clipPath id="clip0_848_286">
<rect width="16" height="16" fill="white"/>
</clipPath>
<clipPath id="clip1_848_286">
<rect width="16" height="16" fill="white"/>
</clipPath>
</defs>
</svg>
