<svg width="11" height="11" viewBox="0 0 11 11" fill="none" xmlns="http://www.w3.org/2000/svg">
<path d="M1.28942 7.08901L0.708864 9.59457C0.688837 9.68616 0.689524 9.78107 0.710874 9.87236C0.732224 9.96365 0.773698 10.049 0.832267 10.1222C0.890836 10.1954 0.965019 10.2546 1.0494 10.2955C1.13378 10.3364 1.22622 10.3579 1.31998 10.3585C1.36366 10.3629 1.40768 10.3629 1.45136 10.3585L3.9722 9.7779L8.8122 4.95623L6.11109 2.26123L1.28942 7.08901Z" fill="#FCAE4F"/>
<path d="M10.3339 2.54208L8.53116 0.7393C8.41264 0.621375 8.25225 0.555176 8.08505 0.555176C7.91786 0.555176 7.75746 0.621375 7.63894 0.7393L6.63672 1.74152L9.33477 4.43958L10.337 3.43736C10.3956 3.37841 10.4421 3.30847 10.4737 3.23155C10.5053 3.15463 10.5214 3.07224 10.5211 2.98908C10.5208 2.90593 10.5042 2.82364 10.472 2.74694C10.4399 2.67024 10.393 2.60062 10.3339 2.54208Z" fill="#FCAE4F"/>
</svg>
